<?xml version="1.0" encoding="UTF-8"?>
<svg xmlns="http://www.w3.org/2000/svg" xmlns:xlink="http://www.w3.org/1999/xlink" width="400pt" height="300pt" viewBox="0 0 400 300" version="1.1">
<g id="surface1">
<path style="fill-rule:nonzero;fill:rgb(96.078431%,82.352941%,28.235294%);fill-opacity:1;stroke-width:2;stroke-linecap:butt;stroke-linejoin:miter;stroke:rgb(100%,100%,100%);stroke-opacity:1;stroke-miterlimit:10;" d="M 18 10 L 58 10 L 58 22 L 18 22 Z M 18 10 "/>
<path style=" stroke:none;fill-rule:nonzero;fill:rgb(40%,40%,40%);fill-opacity:1;" d="M 66.53125 13.238281 L 66.53125 15.800781 L 70.75 15.800781 L 70.75 17.128906 L 66.53125 17.128906 L 66.53125 20.160156 L 64.796875 20.160156 L 64.796875 11.910156 L 70.890625 11.910156 L 70.890625 13.238281 Z M 71.84375 20.160156 L 71.84375 11.457031 L 73.484375 11.457031 L 73.484375 20.160156 Z M 77.421875 18.753906 L 78.890625 13.816406 L 80.609375 13.816406 L 78.109375 20.488281 C 77.785156 21.257812 77.457031 21.804688 77.125 22.128906 C 76.75 22.472656 76.257812 22.644531 75.65625 22.644531 C 75.257812 22.644531 74.914062 22.621094 74.625 22.582031 L 74.625 21.410156 C 74.832031 21.441406 75.019531 21.457031 75.1875 21.457031 C 75.351562 21.457031 75.5 21.433594 75.625 21.394531 C 75.75 21.363281 75.859375 21.304688 75.953125 21.222656 C 76.148438 21.054688 76.332031 20.773438 76.5 20.378906 L 76.609375 20.097656 L 74.09375 13.816406 L 75.828125 13.816406 Z M 81.84375 12.675781 L 81.84375 11.457031 L 83.484375 11.457031 L 83.484375 12.675781 Z M 81.84375 20.160156 L 81.84375 13.816406 L 83.484375 13.816406 L 83.484375 20.160156 Z M 88.953125 20.160156 L 88.953125 16.597656 C 88.953125 16.359375 88.929688 16.136719 88.890625 15.925781 C 88.847656 15.71875 88.78125 15.542969 88.6875 15.394531 C 88.601562 15.25 88.488281 15.136719 88.34375 15.050781 C 88.195312 14.96875 88.019531 14.925781 87.8125 14.925781 C 87.613281 14.925781 87.429688 14.972656 87.265625 15.066406 C 87.109375 15.152344 86.96875 15.277344 86.84375 15.441406 C 86.726562 15.597656 86.640625 15.792969 86.578125 16.019531 C 86.515625 16.25 86.484375 16.496094 86.484375 16.753906 L 86.484375 20.160156 L 84.84375 20.160156 L 84.84375 15.238281 C 84.84375 15.105469 84.835938 14.964844 84.828125 14.816406 C 84.828125 14.671875 84.820312 14.535156 84.8125 14.410156 C 84.8125 14.277344 84.804688 14.15625 84.796875 14.050781 C 84.796875 13.949219 84.796875 13.871094 84.796875 13.816406 L 86.359375 13.816406 C 86.367188 13.871094 86.375 13.949219 86.375 14.050781 C 86.382812 14.15625 86.394531 14.269531 86.40625 14.394531 C 86.414062 14.519531 86.421875 14.644531 86.421875 14.769531 C 86.429688 14.894531 86.4375 15 86.4375 15.082031 L 86.46875 15.082031 C 86.6875 14.59375 86.960938 14.238281 87.296875 14.019531 C 87.628906 13.800781 88.03125 13.691406 88.5 13.691406 C 88.882812 13.691406 89.207031 13.753906 89.46875 13.878906 C 89.726562 14.003906 89.941406 14.175781 90.109375 14.394531 C 90.273438 14.613281 90.394531 14.875 90.46875 15.175781 C 90.550781 15.46875 90.59375 15.785156 90.59375 16.128906 L 90.59375 20.160156 Z M 94.5 22.707031 C 94.070312 22.707031 93.695312 22.664062 93.375 22.582031 C 93.0625 22.496094 92.789062 22.378906 92.5625 22.222656 C 92.34375 22.074219 92.164062 21.898438 92.03125 21.691406 C 91.894531 21.480469 91.800781 21.253906 91.75 21.003906 L 93.40625 20.800781 C 93.457031 21.058594 93.582031 21.257812 93.78125 21.394531 C 93.976562 21.539062 94.234375 21.613281 94.546875 21.613281 C 94.734375 21.613281 94.90625 21.585938 95.0625 21.535156 C 95.226562 21.480469 95.367188 21.386719 95.484375 21.253906 C 95.609375 21.128906 95.703125 20.957031 95.765625 20.738281 C 95.828125 20.527344 95.859375 20.261719 95.859375 19.941406 C 95.859375 19.839844 95.859375 19.730469 95.859375 19.613281 C 95.859375 19.5 95.859375 19.394531 95.859375 19.300781 C 95.867188 19.1875 95.875 19.082031 95.875 18.988281 L 95.859375 18.988281 C 95.671875 19.394531 95.398438 19.691406 95.046875 19.878906 C 94.703125 20.058594 94.289062 20.144531 93.8125 20.144531 C 93.414062 20.144531 93.070312 20.066406 92.78125 19.910156 C 92.488281 19.753906 92.242188 19.535156 92.046875 19.253906 C 91.859375 18.964844 91.71875 18.625 91.625 18.238281 C 91.539062 17.84375 91.5 17.410156 91.5 16.941406 C 91.5 16.453125 91.546875 16.011719 91.640625 15.613281 C 91.734375 15.21875 91.878906 14.878906 92.078125 14.597656 C 92.285156 14.308594 92.539062 14.082031 92.84375 13.925781 C 93.15625 13.769531 93.519531 13.691406 93.9375 13.691406 C 94.363281 13.691406 94.742188 13.785156 95.078125 13.972656 C 95.410156 14.152344 95.671875 14.4375 95.859375 14.832031 L 95.890625 14.832031 C 95.890625 14.761719 95.890625 14.671875 95.890625 14.566406 C 95.898438 14.453125 95.90625 14.347656 95.90625 14.253906 C 95.914062 14.152344 95.925781 14.0625 95.9375 13.988281 C 95.945312 13.90625 95.957031 13.847656 95.96875 13.816406 L 97.53125 13.816406 C 97.519531 13.964844 97.507812 14.160156 97.5 14.410156 C 97.5 14.660156 97.5 14.953125 97.5 15.285156 L 97.5 19.972656 C 97.5 20.429688 97.429688 20.832031 97.296875 21.175781 C 97.160156 21.519531 96.960938 21.800781 96.703125 22.019531 C 96.453125 22.246094 96.140625 22.417969 95.765625 22.535156 C 95.390625 22.648438 94.96875 22.707031 94.5 22.707031 Z M 95.875 16.894531 C 95.875 16.5 95.832031 16.171875 95.75 15.910156 C 95.675781 15.640625 95.578125 15.425781 95.453125 15.269531 C 95.328125 15.105469 95.179688 14.988281 95.015625 14.925781 C 94.859375 14.863281 94.695312 14.832031 94.53125 14.832031 C 94.320312 14.832031 94.132812 14.875 93.96875 14.957031 C 93.800781 15.03125 93.660156 15.15625 93.546875 15.332031 C 93.441406 15.5 93.359375 15.71875 93.296875 15.988281 C 93.234375 16.25 93.203125 16.566406 93.203125 16.941406 C 93.203125 17.621094 93.3125 18.136719 93.53125 18.488281 C 93.75 18.832031 94.078125 19.003906 94.515625 19.003906 C 94.679688 19.003906 94.84375 18.972656 95 18.910156 C 95.164062 18.847656 95.3125 18.738281 95.4375 18.582031 C 95.570312 18.417969 95.675781 18.199219 95.75 17.925781 C 95.832031 17.65625 95.875 17.3125 95.875 16.894531 Z M 64 9.296875 "/>
<path style="fill-rule:nonzero;fill:rgb(89.019608%,54.509804%,51.764706%);fill-opacity:1;stroke-width:2;stroke-linecap:butt;stroke-linejoin:miter;stroke:rgb(100%,100%,100%);stroke-opacity:1;stroke-miterlimit:10;" d="M 108 10 L 148 10 L 148 22 L 108 22 Z M 108 10 "/>
<path style=" stroke:none;fill-rule:nonzero;fill:rgb(40%,40%,40%);fill-opacity:1;" d="M 162.15625 15.972656 C 162.15625 16.660156 162.050781 17.265625 161.84375 17.785156 C 161.644531 18.308594 161.363281 18.746094 161 19.097656 C 160.644531 19.441406 160.222656 19.707031 159.734375 19.894531 C 159.242188 20.074219 158.710938 20.160156 158.140625 20.160156 L 154.796875 20.160156 L 154.796875 11.910156 L 157.796875 11.910156 C 158.429688 11.910156 159.015625 11.988281 159.546875 12.144531 C 160.085938 12.300781 160.550781 12.546875 160.9375 12.878906 C 161.320312 13.214844 161.617188 13.636719 161.828125 14.144531 C 162.046875 14.65625 162.15625 15.265625 162.15625 15.972656 Z M 160.421875 15.972656 C 160.421875 15.496094 160.351562 15.082031 160.21875 14.738281 C 160.09375 14.394531 159.910156 14.113281 159.671875 13.894531 C 159.441406 13.667969 159.160156 13.5 158.828125 13.394531 C 158.503906 13.292969 158.144531 13.238281 157.75 13.238281 L 156.53125 13.238281 L 156.53125 18.816406 L 158 18.816406 C 158.34375 18.816406 158.660156 18.761719 158.953125 18.644531 C 159.253906 18.519531 159.507812 18.339844 159.71875 18.097656 C 159.9375 17.859375 160.109375 17.5625 160.234375 17.207031 C 160.359375 16.855469 160.421875 16.441406 160.421875 15.972656 Z M 165.296875 20.285156 C 164.992188 20.285156 164.722656 20.242188 164.484375 20.160156 C 164.242188 20.066406 164.039062 19.941406 163.875 19.785156 C 163.707031 19.621094 163.578125 19.417969 163.484375 19.175781 C 163.398438 18.9375 163.359375 18.667969 163.359375 18.363281 C 163.359375 17.988281 163.421875 17.675781 163.546875 17.425781 C 163.679688 17.167969 163.859375 16.957031 164.078125 16.800781 C 164.304688 16.644531 164.570312 16.53125 164.875 16.457031 C 165.1875 16.386719 165.515625 16.34375 165.859375 16.332031 L 167.21875 16.316406 L 167.21875 15.988281 C 167.21875 15.761719 167.195312 15.574219 167.15625 15.425781 C 167.113281 15.269531 167.050781 15.144531 166.96875 15.050781 C 166.894531 14.949219 166.800781 14.875 166.6875 14.832031 C 166.570312 14.792969 166.441406 14.769531 166.296875 14.769531 C 166.160156 14.769531 166.035156 14.785156 165.921875 14.816406 C 165.816406 14.839844 165.722656 14.886719 165.640625 14.957031 C 165.566406 15.019531 165.503906 15.109375 165.453125 15.222656 C 165.410156 15.339844 165.378906 15.484375 165.359375 15.660156 L 163.640625 15.582031 C 163.679688 15.300781 163.765625 15.050781 163.890625 14.832031 C 164.015625 14.605469 164.1875 14.40625 164.40625 14.238281 C 164.632812 14.0625 164.910156 13.933594 165.234375 13.847656 C 165.554688 13.753906 165.929688 13.707031 166.359375 13.707031 C 166.753906 13.707031 167.101562 13.753906 167.40625 13.847656 C 167.71875 13.941406 167.984375 14.089844 168.203125 14.285156 C 168.421875 14.484375 168.582031 14.722656 168.6875 15.003906 C 168.800781 15.285156 168.859375 15.609375 168.859375 15.972656 L 168.859375 18.285156 C 168.859375 18.433594 168.863281 18.566406 168.875 18.691406 C 168.894531 18.808594 168.921875 18.90625 168.953125 18.988281 C 168.992188 19.0625 169.046875 19.121094 169.109375 19.160156 C 169.179688 19.203125 169.273438 19.222656 169.390625 19.222656 C 169.515625 19.222656 169.632812 19.214844 169.75 19.191406 L 169.75 20.082031 C 169.65625 20.105469 169.566406 20.125 169.484375 20.144531 C 169.410156 20.164062 169.332031 20.179688 169.25 20.191406 C 169.175781 20.199219 169.09375 20.210938 169 20.222656 C 168.914062 20.230469 168.816406 20.238281 168.703125 20.238281 C 168.285156 20.238281 167.976562 20.136719 167.78125 19.925781 C 167.582031 19.71875 167.460938 19.421875 167.421875 19.035156 L 167.390625 19.035156 C 167.171875 19.421875 166.890625 19.730469 166.546875 19.957031 C 166.203125 20.175781 165.785156 20.285156 165.296875 20.285156 Z M 167.21875 17.222656 L 166.375 17.238281 C 166.195312 17.25 166.03125 17.265625 165.875 17.285156 C 165.71875 17.308594 165.578125 17.355469 165.453125 17.425781 C 165.335938 17.488281 165.242188 17.589844 165.171875 17.722656 C 165.097656 17.847656 165.0625 18.019531 165.0625 18.238281 C 165.0625 18.542969 165.128906 18.765625 165.265625 18.910156 C 165.410156 19.058594 165.597656 19.128906 165.828125 19.128906 C 166.035156 19.128906 166.222656 19.089844 166.390625 19.003906 C 166.566406 18.910156 166.710938 18.792969 166.828125 18.644531 C 166.953125 18.5 167.046875 18.332031 167.109375 18.144531 C 167.179688 17.949219 167.21875 17.75 167.21875 17.550781 Z M 174.953125 20.160156 L 174.953125 16.597656 C 174.953125 16.359375 174.929688 16.136719 174.890625 15.925781 C 174.847656 15.71875 174.78125 15.542969 174.6875 15.394531 C 174.601562 15.25 174.488281 15.136719 174.34375 15.050781 C 174.195312 14.96875 174.019531 14.925781 173.8125 14.925781 C 173.613281 14.925781 173.429688 14.972656 173.265625 15.066406 C 173.109375 15.152344 172.96875 15.277344 172.84375 15.441406 C 172.726562 15.597656 172.640625 15.792969 172.578125 16.019531 C 172.515625 16.25 172.484375 16.496094 172.484375 16.753906 L 172.484375 20.160156 L 170.84375 20.160156 L 170.84375 15.238281 C 170.84375 15.105469 170.835938 14.964844 170.828125 14.816406 C 170.828125 14.671875 170.820312 14.535156 170.8125 14.410156 C 170.8125 14.277344 170.804688 14.15625 170.796875 14.050781 C 170.796875 13.949219 170.796875 13.871094 170.796875 13.816406 L 172.359375 13.816406 C 172.367188 13.871094 172.375 13.949219 172.375 14.050781 C 172.382812 14.15625 172.394531 14.269531 172.40625 14.394531 C 172.414062 14.519531 172.421875 14.644531 172.421875 14.769531 C 172.429688 14.894531 172.4375 15 172.4375 15.082031 L 172.46875 15.082031 C 172.6875 14.59375 172.960938 14.238281 173.296875 14.019531 C 173.628906 13.800781 174.03125 13.691406 174.5 13.691406 C 174.882812 13.691406 175.207031 13.753906 175.46875 13.878906 C 175.726562 14.003906 175.941406 14.175781 176.109375 14.394531 C 176.273438 14.613281 176.394531 14.875 176.46875 15.175781 C 176.550781 15.46875 176.59375 15.785156 176.59375 16.128906 L 176.59375 20.160156 Z M 180.484375 20.285156 C 179.972656 20.285156 179.53125 20.207031 179.15625 20.050781 C 178.78125 19.886719 178.46875 19.660156 178.21875 19.378906 C 177.96875 19.097656 177.78125 18.761719 177.65625 18.363281 C 177.53125 17.957031 177.46875 17.511719 177.46875 17.019531 C 177.46875 16.5 177.535156 16.035156 177.671875 15.628906 C 177.804688 15.214844 178.003906 14.863281 178.265625 14.582031 C 178.523438 14.292969 178.84375 14.074219 179.21875 13.925781 C 179.59375 13.78125 180.019531 13.707031 180.5 13.707031 C 180.914062 13.707031 181.28125 13.765625 181.59375 13.878906 C 181.914062 13.984375 182.191406 14.128906 182.421875 14.316406 C 182.648438 14.503906 182.832031 14.730469 182.96875 14.988281 C 183.113281 15.25 183.21875 15.527344 183.28125 15.816406 L 181.625 15.894531 C 181.570312 15.574219 181.453125 15.316406 181.265625 15.128906 C 181.078125 14.933594 180.8125 14.832031 180.46875 14.832031 C 180.03125 14.832031 179.707031 15.015625 179.5 15.378906 C 179.300781 15.746094 179.203125 16.269531 179.203125 16.957031 C 179.203125 18.417969 179.632812 19.144531 180.5 19.144531 C 180.8125 19.144531 181.070312 19.050781 181.28125 18.863281 C 181.488281 18.667969 181.617188 18.371094 181.671875 17.972656 L 183.328125 18.050781 C 183.285156 18.34375 183.191406 18.625 183.046875 18.894531 C 182.910156 19.15625 182.722656 19.390625 182.484375 19.597656 C 182.253906 19.808594 181.96875 19.972656 181.625 20.097656 C 181.289062 20.222656 180.910156 20.285156 180.484375 20.285156 Z M 184.84375 12.675781 L 184.84375 11.457031 L 186.484375 11.457031 L 186.484375 12.675781 Z M 184.84375 20.160156 L 184.84375 13.816406 L 186.484375 13.816406 L 186.484375 20.160156 Z M 191.953125 20.160156 L 191.953125 16.597656 C 191.953125 16.359375 191.929688 16.136719 191.890625 15.925781 C 191.847656 15.71875 191.78125 15.542969 191.6875 15.394531 C 191.601562 15.25 191.488281 15.136719 191.34375 15.050781 C 191.195312 14.96875 191.019531 14.925781 190.8125 14.925781 C 190.613281 14.925781 190.429688 14.972656 190.265625 15.066406 C 190.109375 15.152344 189.96875 15.277344 189.84375 15.441406 C 189.726562 15.597656 189.640625 15.792969 189.578125 16.019531 C 189.515625 16.25 189.484375 16.496094 189.484375 16.753906 L 189.484375 20.160156 L 187.84375 20.160156 L 187.84375 15.238281 C 187.84375 15.105469 187.835938 14.964844 187.828125 14.816406 C 187.828125 14.671875 187.820312 14.535156 187.8125 14.410156 C 187.8125 14.277344 187.804688 14.15625 187.796875 14.050781 C 187.796875 13.949219 187.796875 13.871094 187.796875 13.816406 L 189.359375 13.816406 C 189.367188 13.871094 189.375 13.949219 189.375 14.050781 C 189.382812 14.15625 189.394531 14.269531 189.40625 14.394531 C 189.414062 14.519531 189.421875 14.644531 189.421875 14.769531 C 189.429688 14.894531 189.4375 15 189.4375 15.082031 L 189.46875 15.082031 C 189.6875 14.59375 189.960938 14.238281 190.296875 14.019531 C 190.628906 13.800781 191.03125 13.691406 191.5 13.691406 C 191.882812 13.691406 192.207031 13.753906 192.46875 13.878906 C 192.726562 14.003906 192.941406 14.175781 193.109375 14.394531 C 193.273438 14.613281 193.394531 14.875 193.46875 15.175781 C 193.550781 15.46875 193.59375 15.785156 193.59375 16.128906 L 193.59375 20.160156 Z M 197.5 22.707031 C 197.070312 22.707031 196.695312 22.664062 196.375 22.582031 C 196.0625 22.496094 195.789062 22.378906 195.5625 22.222656 C 195.34375 22.074219 195.164062 21.898438 195.03125 21.691406 C 194.894531 21.480469 194.800781 21.253906 194.75 21.003906 L 196.40625 20.800781 C 196.457031 21.058594 196.582031 21.257812 196.78125 21.394531 C 196.976562 21.539062 197.234375 21.613281 197.546875 21.613281 C 197.734375 21.613281 197.90625 21.585938 198.0625 21.535156 C 198.226562 21.480469 198.367188 21.386719 198.484375 21.253906 C 198.609375 21.128906 198.703125 20.957031 198.765625 20.738281 C 198.828125 20.527344 198.859375 20.261719 198.859375 19.941406 C 198.859375 19.839844 198.859375 19.730469 198.859375 19.613281 C 198.859375 19.5 198.859375 19.394531 198.859375 19.300781 C 198.867188 19.1875 198.875 19.082031 198.875 18.988281 L 198.859375 18.988281 C 198.671875 19.394531 198.398438 19.691406 198.046875 19.878906 C 197.703125 20.058594 197.289062 20.144531 196.8125 20.144531 C 196.414062 20.144531 196.070312 20.066406 195.78125 19.910156 C 195.488281 19.753906 195.242188 19.535156 195.046875 19.253906 C 194.859375 18.964844 194.71875 18.625 194.625 18.238281 C 194.539062 17.84375 194.5 17.410156 194.5 16.941406 C 194.5 16.453125 194.546875 16.011719 194.640625 15.613281 C 194.734375 15.21875 194.878906 14.878906 195.078125 14.597656 C 195.285156 14.308594 195.539062 14.082031 195.84375 13.925781 C 196.15625 13.769531 196.519531 13.691406 196.9375 13.691406 C 197.363281 13.691406 197.742188 13.785156 198.078125 13.972656 C 198.410156 14.152344 198.671875 14.4375 198.859375 14.832031 L 198.890625 14.832031 C 198.890625 14.761719 198.890625 14.671875 198.890625 14.566406 C 198.898438 14.453125 198.90625 14.347656 198.90625 14.253906 C 198.914062 14.152344 198.925781 14.0625 198.9375 13.988281 C 198.945312 13.90625 198.957031 13.847656 198.96875 13.816406 L 200.53125 13.816406 C 200.519531 13.964844 200.507812 14.160156 200.5 14.410156 C 200.5 14.660156 200.5 14.953125 200.5 15.285156 L 200.5 19.972656 C 200.5 20.429688 200.429688 20.832031 200.296875 21.175781 C 200.160156 21.519531 199.960938 21.800781 199.703125 22.019531 C 199.453125 22.246094 199.140625 22.417969 198.765625 22.535156 C 198.390625 22.648438 197.96875 22.707031 197.5 22.707031 Z M 198.875 16.894531 C 198.875 16.5 198.832031 16.171875 198.75 15.910156 C 198.675781 15.640625 198.578125 15.425781 198.453125 15.269531 C 198.328125 15.105469 198.179688 14.988281 198.015625 14.925781 C 197.859375 14.863281 197.695312 14.832031 197.53125 14.832031 C 197.320312 14.832031 197.132812 14.875 196.96875 14.957031 C 196.800781 15.03125 196.660156 15.15625 196.546875 15.332031 C 196.441406 15.5 196.359375 15.71875 196.296875 15.988281 C 196.234375 16.25 196.203125 16.566406 196.203125 16.941406 C 196.203125 17.621094 196.3125 18.136719 196.53125 18.488281 C 196.75 18.832031 197.078125 19.003906 197.515625 19.003906 C 197.679688 19.003906 197.84375 18.972656 198 18.910156 C 198.164062 18.847656 198.3125 18.738281 198.4375 18.582031 C 198.570312 18.417969 198.675781 18.199219 198.75 17.925781 C 198.832031 17.65625 198.875 17.3125 198.875 16.894531 Z M 154 9.296875 "/>
<path style="fill-rule:nonzero;fill:rgb(12.54902%,36.862745%,44.313725%);fill-opacity:1;stroke-width:2;stroke-linecap:butt;stroke-linejoin:miter;stroke:rgb(100%,100%,100%);stroke-opacity:1;stroke-miterlimit:10;" d="M 211 10 L 251 10 L 251 22 L 211 22 Z M 211 10 "/>
<path style=" stroke:none;fill-rule:nonzero;fill:rgb(40%,40%,40%);fill-opacity:1;" d="M 265.15625 15.882812 C 265.15625 16.570312 265.050781 17.175781 264.84375 17.695312 C 264.644531 18.21875 264.363281 18.65625 264 19.007812 C 263.644531 19.351562 263.222656 19.617188 262.734375 19.804688 C 262.242188 19.984375 261.710938 20.070312 261.140625 20.070312 L 257.796875 20.070312 L 257.796875 11.820312 L 260.796875 11.820312 C 261.429688 11.820312 262.015625 11.898438 262.546875 12.054688 C 263.085938 12.210938 263.550781 12.457031 263.9375 12.789062 C 264.320312 13.125 264.617188 13.546875 264.828125 14.054688 C 265.046875 14.566406 265.15625 15.175781 265.15625 15.882812 Z M 263.421875 15.882812 C 263.421875 15.40625 263.351562 14.992188 263.21875 14.648438 C 263.09375 14.304688 262.910156 14.023438 262.671875 13.804688 C 262.441406 13.578125 262.160156 13.410156 261.828125 13.304688 C 261.503906 13.203125 261.144531 13.148438 260.75 13.148438 L 259.53125 13.148438 L 259.53125 18.726562 L 261 18.726562 C 261.34375 18.726562 261.660156 18.671875 261.953125 18.554688 C 262.253906 18.429688 262.507812 18.25 262.71875 18.007812 C 262.9375 17.769531 263.109375 17.472656 263.234375 17.117188 C 263.359375 16.765625 263.421875 16.351562 263.421875 15.882812 Z M 266.84375 12.585938 L 266.84375 11.367188 L 268.484375 11.367188 L 268.484375 12.585938 Z M 266.84375 20.070312 L 266.84375 13.726562 L 268.484375 13.726562 L 268.484375 20.070312 Z M 273.953125 20.070312 L 273.953125 16.507812 C 273.953125 16.269531 273.929688 16.046875 273.890625 15.835938 C 273.847656 15.628906 273.78125 15.453125 273.6875 15.304688 C 273.601562 15.160156 273.488281 15.046875 273.34375 14.960938 C 273.195312 14.878906 273.019531 14.835938 272.8125 14.835938 C 272.613281 14.835938 272.429688 14.882812 272.265625 14.976562 C 272.109375 15.0625 271.96875 15.1875 271.84375 15.351562 C 271.726562 15.507812 271.640625 15.703125 271.578125 15.929688 C 271.515625 16.160156 271.484375 16.40625 271.484375 16.664062 L 271.484375 20.070312 L 269.84375 20.070312 L 269.84375 15.148438 C 269.84375 15.015625 269.835938 14.875 269.828125 14.726562 C 269.828125 14.582031 269.820312 14.445312 269.8125 14.320312 C 269.8125 14.1875 269.804688 14.066406 269.796875 13.960938 C 269.796875 13.859375 269.796875 13.78125 269.796875 13.726562 L 271.359375 13.726562 C 271.367188 13.78125 271.375 13.859375 271.375 13.960938 C 271.382812 14.066406 271.394531 14.179688 271.40625 14.304688 C 271.414062 14.429688 271.421875 14.554688 271.421875 14.679688 C 271.429688 14.804688 271.4375 14.910156 271.4375 14.992188 L 271.46875 14.992188 C 271.6875 14.503906 271.960938 14.148438 272.296875 13.929688 C 272.628906 13.710938 273.03125 13.601562 273.5 13.601562 C 273.882812 13.601562 274.207031 13.664062 274.46875 13.789062 C 274.726562 13.914062 274.941406 14.085938 275.109375 14.304688 C 275.273438 14.523438 275.394531 14.785156 275.46875 15.085938 C 275.550781 15.378906 275.59375 15.695312 275.59375 16.039062 L 275.59375 20.070312 Z M 280.953125 20.070312 L 280.953125 16.507812 C 280.953125 16.269531 280.929688 16.046875 280.890625 15.835938 C 280.847656 15.628906 280.78125 15.453125 280.6875 15.304688 C 280.601562 15.160156 280.488281 15.046875 280.34375 14.960938 C 280.195312 14.878906 280.019531 14.835938 279.8125 14.835938 C 279.613281 14.835938 279.429688 14.882812 279.265625 14.976562 C 279.109375 15.0625 278.96875 15.1875 278.84375 15.351562 C 278.726562 15.507812 278.640625 15.703125 278.578125 15.929688 C 278.515625 16.160156 278.484375 16.40625 278.484375 16.664062 L 278.484375 20.070312 L 276.84375 20.070312 L 276.84375 15.148438 C 276.84375 15.015625 276.835938 14.875 276.828125 14.726562 C 276.828125 14.582031 276.820312 14.445312 276.8125 14.320312 C 276.8125 14.1875 276.804688 14.066406 276.796875 13.960938 C 276.796875 13.859375 276.796875 13.78125 276.796875 13.726562 L 278.359375 13.726562 C 278.367188 13.78125 278.375 13.859375 278.375 13.960938 C 278.382812 14.066406 278.394531 14.179688 278.40625 14.304688 C 278.414062 14.429688 278.421875 14.554688 278.421875 14.679688 C 278.429688 14.804688 278.4375 14.910156 278.4375 14.992188 L 278.46875 14.992188 C 278.6875 14.503906 278.960938 14.148438 279.296875 13.929688 C 279.628906 13.710938 280.03125 13.601562 280.5 13.601562 C 280.882812 13.601562 281.207031 13.664062 281.46875 13.789062 C 281.726562 13.914062 281.941406 14.085938 282.109375 14.304688 C 282.273438 14.523438 282.394531 14.785156 282.46875 15.085938 C 282.550781 15.378906 282.59375 15.695312 282.59375 16.039062 L 282.59375 20.070312 Z M 286.4375 20.195312 C 285.976562 20.195312 285.566406 20.125 285.203125 19.992188 C 284.835938 19.859375 284.523438 19.65625 284.265625 19.382812 C 284.003906 19.101562 283.804688 18.753906 283.671875 18.335938 C 283.535156 17.921875 283.46875 17.429688 283.46875 16.867188 C 283.46875 16.265625 283.546875 15.757812 283.703125 15.351562 C 283.867188 14.9375 284.085938 14.597656 284.359375 14.335938 C 284.640625 14.078125 284.957031 13.894531 285.3125 13.789062 C 285.675781 13.675781 286.054688 13.617188 286.453125 13.617188 C 286.953125 13.617188 287.378906 13.707031 287.734375 13.882812 C 288.085938 14.050781 288.378906 14.289062 288.609375 14.601562 C 288.835938 14.914062 289.003906 15.289062 289.109375 15.726562 C 289.210938 16.164062 289.265625 16.644531 289.265625 17.164062 L 289.265625 17.210938 L 285.203125 17.210938 C 285.203125 17.484375 285.222656 17.734375 285.265625 17.960938 C 285.316406 18.191406 285.394531 18.390625 285.5 18.554688 C 285.601562 18.722656 285.738281 18.851562 285.90625 18.945312 C 286.070312 19.039062 286.273438 19.085938 286.515625 19.085938 C 286.804688 19.085938 287.039062 19.023438 287.21875 18.898438 C 287.40625 18.773438 287.539062 18.585938 287.625 18.335938 L 289.171875 18.460938 C 289.097656 18.640625 289 18.832031 288.875 19.039062 C 288.75 19.238281 288.578125 19.425781 288.359375 19.601562 C 288.148438 19.769531 287.890625 19.910156 287.578125 20.023438 C 287.265625 20.136719 286.882812 20.195312 286.4375 20.195312 Z M 286.4375 14.648438 C 286.269531 14.648438 286.113281 14.679688 285.96875 14.742188 C 285.820312 14.796875 285.691406 14.882812 285.578125 15.007812 C 285.472656 15.132812 285.382812 15.296875 285.3125 15.492188 C 285.25 15.679688 285.210938 15.910156 285.203125 16.179688 L 287.671875 16.179688 C 287.640625 15.671875 287.515625 15.289062 287.296875 15.039062 C 287.085938 14.78125 286.800781 14.648438 286.4375 14.648438 Z M 290.84375 20.070312 L 290.84375 15.210938 C 290.84375 15.078125 290.835938 14.9375 290.828125 14.789062 C 290.828125 14.632812 290.820312 14.488281 290.8125 14.351562 C 290.8125 14.207031 290.804688 14.082031 290.796875 13.976562 C 290.796875 13.863281 290.796875 13.78125 290.796875 13.726562 L 292.359375 13.726562 C 292.367188 13.78125 292.375 13.863281 292.375 13.976562 C 292.382812 14.09375 292.394531 14.21875 292.40625 14.351562 C 292.414062 14.488281 292.421875 14.625 292.421875 14.757812 C 292.429688 14.894531 292.4375 15.003906 292.4375 15.085938 L 292.46875 15.085938 C 292.539062 14.859375 292.617188 14.65625 292.703125 14.476562 C 292.785156 14.289062 292.882812 14.132812 293 14.007812 C 293.113281 13.875 293.25 13.773438 293.40625 13.710938 C 293.5625 13.640625 293.753906 13.601562 293.984375 13.601562 C 294.078125 13.601562 294.171875 13.613281 294.265625 13.632812 C 294.359375 13.65625 294.429688 13.675781 294.484375 13.695312 L 294.484375 15.070312 C 294.378906 15.050781 294.273438 15.03125 294.171875 15.007812 C 294.066406 14.988281 293.9375 14.976562 293.78125 14.976562 C 293.375 14.976562 293.054688 15.144531 292.828125 15.476562 C 292.597656 15.8125 292.484375 16.304688 292.484375 16.960938 L 292.484375 20.070312 Z M 300.5625 18.570312 L 301.78125 13.726562 L 303.546875 13.726562 L 304.75 18.570312 L 305.828125 13.726562 L 307.359375 13.726562 L 305.6875 20.070312 L 303.953125 20.070312 L 302.671875 14.898438 L 301.34375 20.070312 L 299.609375 20.070312 L 297.96875 13.726562 L 299.515625 13.726562 Z M 307.84375 12.585938 L 307.84375 11.367188 L 309.484375 11.367188 L 309.484375 12.585938 Z M 307.84375 20.070312 L 307.84375 13.726562 L 309.484375 13.726562 L 309.484375 20.070312 Z M 312.46875 20.179688 C 311.976562 20.179688 311.601562 20.050781 311.34375 19.789062 C 311.082031 19.519531 310.953125 19.117188 310.953125 18.585938 L 310.953125 14.835938 L 310.140625 14.835938 L 310.140625 13.726562 L 311.03125 13.726562 L 311.546875 12.242188 L 312.578125 12.242188 L 312.578125 13.726562 L 313.78125 13.726562 L 313.78125 14.835938 L 312.578125 14.835938 L 312.578125 18.132812 C 312.578125 18.445312 312.632812 18.675781 312.75 18.820312 C 312.875 18.96875 313.054688 19.039062 313.296875 19.039062 C 313.398438 19.039062 313.492188 19.035156 313.578125 19.023438 C 313.660156 19.003906 313.75 18.984375 313.84375 18.960938 L 313.84375 19.976562 C 313.644531 20.039062 313.429688 20.085938 313.203125 20.117188 C 312.972656 20.15625 312.726562 20.179688 312.46875 20.179688 Z M 316.46875 14.992188 C 316.6875 14.515625 316.960938 14.164062 317.296875 13.945312 C 317.628906 13.726562 318.03125 13.617188 318.5 13.617188 C 318.882812 13.617188 319.207031 13.679688 319.46875 13.804688 C 319.726562 13.929688 319.941406 14.101562 320.109375 14.320312 C 320.273438 14.539062 320.394531 14.800781 320.46875 15.101562 C 320.550781 15.394531 320.59375 15.710938 320.59375 16.054688 L 320.59375 20.070312 L 318.953125 20.070312 L 318.953125 16.523438 C 318.953125 16.273438 318.929688 16.050781 318.890625 15.851562 C 318.847656 15.644531 318.78125 15.46875 318.6875 15.320312 C 318.601562 15.175781 318.488281 15.0625 318.34375 14.976562 C 318.195312 14.894531 318.019531 14.851562 317.8125 14.851562 C 317.613281 14.851562 317.429688 14.898438 317.265625 14.992188 C 317.109375 15.078125 316.96875 15.203125 316.84375 15.367188 C 316.726562 15.523438 316.640625 15.71875 316.578125 15.945312 C 316.515625 16.164062 316.484375 16.410156 316.484375 16.679688 L 316.484375 20.070312 L 314.84375 20.070312 L 314.84375 11.367188 L 316.484375 11.367188 L 316.484375 13.742188 C 316.484375 13.867188 316.476562 14 316.46875 14.132812 C 316.46875 14.257812 316.460938 14.378906 316.453125 14.492188 C 316.453125 14.597656 316.445312 14.695312 316.4375 14.789062 C 316.4375 14.875 316.4375 14.941406 316.4375 14.992188 Z M 326.765625 14.835938 L 326.765625 20.070312 L 325.125 20.070312 L 325.125 14.835938 L 324.203125 14.835938 L 324.203125 13.726562 L 325.125 13.726562 L 325.125 13.070312 C 325.125 12.832031 325.15625 12.609375 325.21875 12.398438 C 325.28125 12.191406 325.378906 12.015625 325.515625 11.867188 C 325.660156 11.710938 325.847656 11.59375 326.078125 11.507812 C 326.316406 11.414062 326.617188 11.367188 326.984375 11.367188 C 327.171875 11.367188 327.351562 11.378906 327.53125 11.398438 C 327.707031 11.421875 327.867188 11.441406 328.015625 11.460938 L 328.015625 12.523438 C 327.953125 12.515625 327.875 12.503906 327.78125 12.492188 C 327.695312 12.484375 327.617188 12.476562 327.546875 12.476562 C 327.390625 12.476562 327.257812 12.492188 327.15625 12.523438 C 327.0625 12.554688 326.984375 12.601562 326.921875 12.664062 C 326.867188 12.726562 326.828125 12.804688 326.796875 12.898438 C 326.773438 12.992188 326.765625 13.101562 326.765625 13.226562 L 326.765625 13.726562 L 328.015625 13.726562 L 328.015625 14.835938 Z M 328.84375 20.070312 L 328.84375 15.210938 C 328.84375 15.078125 328.835938 14.9375 328.828125 14.789062 C 328.828125 14.632812 328.820312 14.488281 328.8125 14.351562 C 328.8125 14.207031 328.804688 14.082031 328.796875 13.976562 C 328.796875 13.863281 328.796875 13.78125 328.796875 13.726562 L 330.359375 13.726562 C 330.367188 13.78125 330.375 13.863281 330.375 13.976562 C 330.382812 14.09375 330.394531 14.21875 330.40625 14.351562 C 330.414062 14.488281 330.421875 14.625 330.421875 14.757812 C 330.429688 14.894531 330.4375 15.003906 330.4375 15.085938 L 330.46875 15.085938 C 330.539062 14.859375 330.617188 14.65625 330.703125 14.476562 C 330.785156 14.289062 330.882812 14.132812 331 14.007812 C 331.113281 13.875 331.25 13.773438 331.40625 13.710938 C 331.5625 13.640625 331.753906 13.601562 331.984375 13.601562 C 332.078125 13.601562 332.171875 13.613281 332.265625 13.632812 C 332.359375 13.65625 332.429688 13.675781 332.484375 13.695312 L 332.484375 15.070312 C 332.378906 15.050781 332.273438 15.03125 332.171875 15.007812 C 332.066406 14.988281 331.9375 14.976562 331.78125 14.976562 C 331.375 14.976562 331.054688 15.144531 330.828125 15.476562 C 330.597656 15.8125 330.484375 16.304688 330.484375 16.960938 L 330.484375 20.070312 Z M 333.84375 12.585938 L 333.84375 11.367188 L 335.484375 11.367188 L 335.484375 12.585938 Z M 333.84375 20.070312 L 333.84375 13.726562 L 335.484375 13.726562 L 335.484375 20.070312 Z M 339.4375 20.195312 C 338.976562 20.195312 338.566406 20.125 338.203125 19.992188 C 337.835938 19.859375 337.523438 19.65625 337.265625 19.382812 C 337.003906 19.101562 336.804688 18.753906 336.671875 18.335938 C 336.535156 17.921875 336.46875 17.429688 336.46875 16.867188 C 336.46875 16.265625 336.546875 15.757812 336.703125 15.351562 C 336.867188 14.9375 337.085938 14.597656 337.359375 14.335938 C 337.640625 14.078125 337.957031 13.894531 338.3125 13.789062 C 338.675781 13.675781 339.054688 13.617188 339.453125 13.617188 C 339.953125 13.617188 340.378906 13.707031 340.734375 13.882812 C 341.085938 14.050781 341.378906 14.289062 341.609375 14.601562 C 341.835938 14.914062 342.003906 15.289062 342.109375 15.726562 C 342.210938 16.164062 342.265625 16.644531 342.265625 17.164062 L 342.265625 17.210938 L 338.203125 17.210938 C 338.203125 17.484375 338.222656 17.734375 338.265625 17.960938 C 338.316406 18.191406 338.394531 18.390625 338.5 18.554688 C 338.601562 18.722656 338.738281 18.851562 338.90625 18.945312 C 339.070312 19.039062 339.273438 19.085938 339.515625 19.085938 C 339.804688 19.085938 340.039062 19.023438 340.21875 18.898438 C 340.40625 18.773438 340.539062 18.585938 340.625 18.335938 L 342.171875 18.460938 C 342.097656 18.640625 342 18.832031 341.875 19.039062 C 341.75 19.238281 341.578125 19.425781 341.359375 19.601562 C 341.148438 19.769531 340.890625 19.910156 340.578125 20.023438 C 340.265625 20.136719 339.882812 20.195312 339.4375 20.195312 Z M 339.4375 14.648438 C 339.269531 14.648438 339.113281 14.679688 338.96875 14.742188 C 338.820312 14.796875 338.691406 14.882812 338.578125 15.007812 C 338.472656 15.132812 338.382812 15.296875 338.3125 15.492188 C 338.25 15.679688 338.210938 15.910156 338.203125 16.179688 L 340.671875 16.179688 C 340.640625 15.671875 340.515625 15.289062 340.296875 15.039062 C 340.085938 14.78125 339.800781 14.648438 339.4375 14.648438 Z M 347.953125 20.070312 L 347.953125 16.507812 C 347.953125 16.269531 347.929688 16.046875 347.890625 15.835938 C 347.847656 15.628906 347.78125 15.453125 347.6875 15.304688 C 347.601562 15.160156 347.488281 15.046875 347.34375 14.960938 C 347.195312 14.878906 347.019531 14.835938 346.8125 14.835938 C 346.613281 14.835938 346.429688 14.882812 346.265625 14.976562 C 346.109375 15.0625 345.96875 15.1875 345.84375 15.351562 C 345.726562 15.507812 345.640625 15.703125 345.578125 15.929688 C 345.515625 16.160156 345.484375 16.40625 345.484375 16.664062 L 345.484375 20.070312 L 343.84375 20.070312 L 343.84375 15.148438 C 343.84375 15.015625 343.835938 14.875 343.828125 14.726562 C 343.828125 14.582031 343.820312 14.445312 343.8125 14.320312 C 343.8125 14.1875 343.804688 14.066406 343.796875 13.960938 C 343.796875 13.859375 343.796875 13.78125 343.796875 13.726562 L 345.359375 13.726562 C 345.367188 13.78125 345.375 13.859375 345.375 13.960938 C 345.382812 14.066406 345.394531 14.179688 345.40625 14.304688 C 345.414062 14.429688 345.421875 14.554688 345.421875 14.679688 C 345.429688 14.804688 345.4375 14.910156 345.4375 14.992188 L 345.46875 14.992188 C 345.6875 14.503906 345.960938 14.148438 346.296875 13.929688 C 346.628906 13.710938 347.03125 13.601562 347.5 13.601562 C 347.882812 13.601562 348.207031 13.664062 348.46875 13.789062 C 348.726562 13.914062 348.941406 14.085938 349.109375 14.304688 C 349.273438 14.523438 349.394531 14.785156 349.46875 15.085938 C 349.550781 15.378906 349.59375 15.695312 349.59375 16.039062 L 349.59375 20.070312 Z M 354.953125 20.070312 C 354.941406 20.039062 354.929688 19.988281 354.921875 19.914062 C 354.910156 19.832031 354.898438 19.738281 354.890625 19.632812 C 354.878906 19.53125 354.867188 19.425781 354.859375 19.320312 C 354.859375 19.21875 354.859375 19.125 354.859375 19.039062 L 354.828125 19.039062 C 354.640625 19.445312 354.375 19.742188 354.03125 19.929688 C 353.6875 20.105469 353.28125 20.195312 352.8125 20.195312 C 352.40625 20.195312 352.054688 20.109375 351.765625 19.945312 C 351.484375 19.78125 351.242188 19.550781 351.046875 19.257812 C 350.859375 18.96875 350.71875 18.625 350.625 18.226562 C 350.539062 17.820312 350.5 17.378906 350.5 16.898438 C 350.5 16.421875 350.546875 15.984375 350.640625 15.585938 C 350.734375 15.179688 350.878906 14.832031 351.078125 14.539062 C 351.273438 14.25 351.523438 14.023438 351.828125 13.867188 C 352.140625 13.703125 352.507812 13.617188 352.9375 13.617188 C 353.132812 13.617188 353.328125 13.640625 353.515625 13.679688 C 353.710938 13.722656 353.894531 13.789062 354.0625 13.882812 C 354.226562 13.96875 354.375 14.082031 354.5 14.226562 C 354.632812 14.363281 354.75 14.53125 354.84375 14.726562 L 354.859375 14.726562 C 354.859375 14.695312 354.859375 14.644531 354.859375 14.570312 C 354.859375 14.488281 354.859375 14.398438 354.859375 14.304688 C 354.859375 14.203125 354.851562 14.097656 354.84375 13.992188 C 354.84375 13.890625 354.84375 13.789062 354.84375 13.695312 L 354.84375 11.367188 L 356.5 11.367188 L 356.5 18.679688 C 356.5 18.992188 356.503906 19.269531 356.515625 19.507812 C 356.523438 19.75 356.535156 19.9375 356.546875 20.070312 Z M 354.875 16.867188 C 354.875 16.453125 354.832031 16.109375 354.75 15.835938 C 354.675781 15.554688 354.570312 15.335938 354.4375 15.179688 C 354.3125 15.015625 354.164062 14.898438 354 14.835938 C 353.84375 14.765625 353.679688 14.726562 353.515625 14.726562 C 353.304688 14.726562 353.117188 14.769531 352.953125 14.851562 C 352.796875 14.9375 352.660156 15.066406 352.546875 15.242188 C 352.429688 15.421875 352.34375 15.644531 352.28125 15.914062 C 352.226562 16.1875 352.203125 16.515625 352.203125 16.898438 C 352.203125 18.335938 352.632812 19.054688 353.5 19.054688 C 353.664062 19.054688 353.832031 19.023438 354 18.960938 C 354.164062 18.890625 354.3125 18.769531 354.4375 18.601562 C 354.5625 18.4375 354.664062 18.210938 354.75 17.929688 C 354.832031 17.640625 354.875 17.285156 354.875 16.867188 Z M 363.1875 18.210938 C 363.1875 18.523438 363.117188 18.800781 362.984375 19.039062 C 362.859375 19.28125 362.675781 19.488281 362.4375 19.664062 C 362.195312 19.832031 361.898438 19.960938 361.546875 20.054688 C 361.191406 20.148438 360.789062 20.195312 360.34375 20.195312 C 359.945312 20.195312 359.582031 20.164062 359.25 20.101562 C 358.925781 20.039062 358.640625 19.941406 358.390625 19.804688 C 358.148438 19.671875 357.945312 19.5 357.78125 19.289062 C 357.625 19.070312 357.503906 18.804688 357.421875 18.492188 L 358.875 18.273438 C 358.914062 18.453125 358.976562 18.597656 359.0625 18.710938 C 359.144531 18.816406 359.242188 18.898438 359.359375 18.960938 C 359.484375 19.015625 359.625 19.050781 359.78125 19.070312 C 359.945312 19.09375 360.132812 19.101562 360.34375 19.101562 C 360.53125 19.101562 360.703125 19.09375 360.859375 19.070312 C 361.023438 19.050781 361.164062 19.015625 361.28125 18.960938 C 361.40625 18.898438 361.5 18.820312 361.5625 18.726562 C 361.632812 18.632812 361.671875 18.515625 361.671875 18.367188 C 361.671875 18.203125 361.625 18.070312 361.53125 17.976562 C 361.4375 17.882812 361.304688 17.804688 361.140625 17.742188 C 360.972656 17.679688 360.773438 17.628906 360.546875 17.585938 C 360.328125 17.546875 360.085938 17.492188 359.828125 17.429688 C 359.566406 17.378906 359.304688 17.3125 359.046875 17.226562 C 358.785156 17.144531 358.550781 17.035156 358.34375 16.898438 C 358.144531 16.753906 357.984375 16.570312 357.859375 16.351562 C 357.734375 16.132812 357.671875 15.859375 357.671875 15.523438 C 357.671875 15.222656 357.726562 14.957031 357.84375 14.726562 C 357.96875 14.488281 358.140625 14.285156 358.359375 14.117188 C 358.585938 13.953125 358.867188 13.828125 359.203125 13.742188 C 359.535156 13.648438 359.921875 13.601562 360.359375 13.601562 C 360.703125 13.601562 361.019531 13.640625 361.3125 13.710938 C 361.613281 13.773438 361.878906 13.875 362.109375 14.007812 C 362.347656 14.144531 362.546875 14.320312 362.703125 14.539062 C 362.859375 14.757812 362.96875 15.019531 363.03125 15.320312 L 361.578125 15.476562 C 361.546875 15.320312 361.492188 15.195312 361.421875 15.101562 C 361.359375 15 361.273438 14.921875 361.171875 14.867188 C 361.066406 14.804688 360.945312 14.765625 360.8125 14.742188 C 360.675781 14.710938 360.523438 14.695312 360.359375 14.695312 C 359.960938 14.695312 359.664062 14.75 359.46875 14.851562 C 359.28125 14.957031 359.1875 15.125 359.1875 15.351562 C 359.1875 15.5 359.222656 15.613281 359.296875 15.695312 C 359.378906 15.78125 359.492188 15.851562 359.640625 15.914062 C 359.785156 15.96875 359.957031 16.015625 360.15625 16.054688 C 360.363281 16.097656 360.585938 16.148438 360.828125 16.210938 C 361.117188 16.273438 361.40625 16.347656 361.6875 16.429688 C 361.96875 16.515625 362.21875 16.628906 362.4375 16.773438 C 362.664062 16.921875 362.847656 17.109375 362.984375 17.335938 C 363.117188 17.566406 363.1875 17.859375 363.1875 18.210938 Z M 375 9.070312 L 376 9.070312 L 376 10.070312 L 375 10.070312 Z M 373 10.070312 L 374 10.070312 L 374 11.070312 L 373 11.070312 Z M 374 10.070312 L 375 10.070312 L 375 11.070312 L 374 11.070312 Z M 375 10.070312 L 376 10.070312 L 376 11.070312 L 375 11.070312 Z M 371 11.070312 L 372 11.070312 L 372 12.070312 L 371 12.070312 Z M 372 11.070312 L 373 11.070312 L 373 12.070312 L 372 12.070312 Z M 373 11.070312 L 374 11.070312 L 374 12.070312 L 373 12.070312 Z M 374 11.070312 L 375 11.070312 L 375 12.070312 L 374 12.070312 Z M 375 11.070312 L 376 11.070312 L 376 12.070312 L 375 12.070312 Z M 376 11.070312 L 377 11.070312 L 377 12.070312 L 376 12.070312 Z M 370 12.070312 L 371 12.070312 L 371 13.070312 L 370 13.070312 Z M 371 12.070312 L 372 12.070312 L 372 13.070312 L 371 13.070312 Z M 372 12.070312 L 373 12.070312 L 373 13.070312 L 372 13.070312 Z M 373 12.070312 L 374 12.070312 L 374 13.070312 L 373 13.070312 Z M 374 12.070312 L 375 12.070312 L 375 13.070312 L 374 13.070312 Z M 375 12.070312 L 376 12.070312 L 376 13.070312 L 375 13.070312 Z M 376 12.070312 L 377 12.070312 L 377 13.070312 L 376 13.070312 Z M 370 13.070312 L 371 13.070312 L 371 14.070312 L 370 14.070312 Z M 371 13.070312 L 372 13.070312 L 372 14.070312 L 371 14.070312 Z M 372 13.070312 L 373 13.070312 L 373 14.070312 L 372 14.070312 Z M 373 13.070312 L 374 13.070312 L 374 14.070312 L 373 14.070312 Z M 374 13.070312 L 375 13.070312 L 375 14.070312 L 374 14.070312 Z M 375 13.070312 L 376 13.070312 L 376 14.070312 L 375 14.070312 Z M 376 13.070312 L 377 13.070312 L 377 14.070312 L 376 14.070312 Z M 369 14.070312 L 370 14.070312 L 370 15.070312 L 369 15.070312 Z M 370 14.070312 L 371 14.070312 L 371 15.070312 L 370 15.070312 Z M 371 14.070312 L 372 14.070312 L 372 15.070312 L 371 15.070312 Z M 372 14.070312 L 373 14.070312 L 373 15.070312 L 372 15.070312 Z M 373 14.070312 L 374 14.070312 L 374 15.070312 L 373 15.070312 Z M 374 14.070312 L 375 14.070312 L 375 15.070312 L 374 15.070312 Z M 375 14.070312 L 376 14.070312 L 376 15.070312 L 375 15.070312 Z M 376 14.070312 L 377 14.070312 L 377 15.070312 L 376 15.070312 Z M 369 15.070312 L 370 15.070312 L 370 16.070312 L 369 16.070312 Z M 370 15.070312 L 371 15.070312 L 371 16.070312 L 370 16.070312 Z M 371 15.070312 L 372 15.070312 L 372 16.070312 L 371 16.070312 Z M 372 15.070312 L 373 15.070312 L 373 16.070312 L 372 16.070312 Z M 373 15.070312 L 374 15.070312 L 374 16.070312 L 373 16.070312 Z M 374 15.070312 L 375 15.070312 L 375 16.070312 L 374 16.070312 Z M 375 15.070312 L 376 15.070312 L 376 16.070312 L 375 16.070312 Z M 376 15.070312 L 377 15.070312 L 377 16.070312 L 376 16.070312 Z M 377 15.070312 L 378 15.070312 L 378 16.070312 L 377 16.070312 Z M 370 16.070312 L 371 16.070312 L 371 17.070312 L 370 17.070312 Z M 371 16.070312 L 372 16.070312 L 372 17.070312 L 371 17.070312 Z M 372 16.070312 L 373 16.070312 L 373 17.070312 L 372 17.070312 Z M 373 16.070312 L 374 16.070312 L 374 17.070312 L 373 17.070312 Z M 374 16.070312 L 375 16.070312 L 375 17.070312 L 374 17.070312 Z M 375 16.070312 L 376 16.070312 L 376 17.070312 L 375 17.070312 Z M 376 16.070312 L 377 16.070312 L 377 17.070312 L 376 17.070312 Z M 377 16.070312 L 378 16.070312 L 378 17.070312 L 377 17.070312 Z M 371 17.070312 L 372 17.070312 L 372 18.070312 L 371 18.070312 Z M 372 17.070312 L 373 17.070312 L 373 18.070312 L 372 18.070312 Z M 373 17.070312 L 374 17.070312 L 374 18.070312 L 373 18.070312 Z M 374 17.070312 L 375 17.070312 L 375 18.070312 L 374 18.070312 Z M 375 17.070312 L 376 17.070312 L 376 18.070312 L 375 18.070312 Z M 377 17.070312 L 378 17.070312 L 378 18.070312 L 377 18.070312 Z M 378 17.070312 L 379 17.070312 L 379 18.070312 L 378 18.070312 Z M 373 18.070312 L 374 18.070312 L 374 19.070312 L 373 19.070312 Z M 374 18.070312 L 375 18.070312 L 375 19.070312 L 374 19.070312 Z M 375 18.070312 L 376 18.070312 L 376 19.070312 L 375 19.070312 Z M 376 18.070312 L 377 18.070312 L 377 19.070312 L 376 19.070312 Z M 377 18.070312 L 378 18.070312 L 378 19.070312 L 377 19.070312 Z M 378 18.070312 L 379 18.070312 L 379 19.070312 L 378 19.070312 Z M 375 19.070312 L 376 19.070312 L 376 20.070312 L 375 20.070312 Z M 376 19.070312 L 377 19.070312 L 377 20.070312 L 376 20.070312 Z M 377 19.070312 L 378 19.070312 L 378 20.070312 L 377 20.070312 Z M 378 19.070312 L 379 19.070312 L 379 20.070312 L 378 20.070312 Z M 379 19.070312 L 380 19.070312 L 380 20.070312 L 379 20.070312 Z M 377 20.070312 L 378 20.070312 L 378 21.070312 L 377 21.070312 Z M 379 20.070312 L 380 20.070312 L 380 21.070312 L 379 21.070312 Z M 379 21.070312 L 380 21.070312 L 380 22.070312 L 379 22.070312 Z M 257 8.953125 "/>
<path style="fill-rule:nonzero;fill:rgb(39.215686%,90.980392%,23.529412%);fill-opacity:1;stroke-width:2;stroke-linecap:butt;stroke-linejoin:miter;stroke:rgb(100%,100%,100%);stroke-opacity:1;stroke-miterlimit:10;" d="M 110.5 32 L 150.5 32 L 150.5 44 L 110.5 44 Z M 110.5 32 "/>
<path style=" stroke:none;fill-rule:nonzero;fill:rgb(40%,40%,40%);fill-opacity:1;" d="M 164.15625 42.070312 L 164.15625 37.070312 C 164.15625 36.875 164.15625 36.671875 164.15625 36.460938 C 164.164062 36.242188 164.175781 36.046875 164.1875 35.867188 C 164.195312 35.660156 164.207031 35.460938 164.21875 35.273438 C 164.132812 35.578125 164.054688 35.867188 163.984375 36.148438 C 163.953125 36.265625 163.914062 36.382812 163.875 36.507812 C 163.84375 36.632812 163.8125 36.757812 163.78125 36.882812 C 163.75 37 163.71875 37.109375 163.6875 37.210938 C 163.65625 37.304688 163.628906 37.390625 163.609375 37.460938 L 162.109375 42.070312 L 160.890625 42.070312 L 159.390625 37.460938 C 159.367188 37.390625 159.34375 37.304688 159.3125 37.210938 C 159.28125 37.109375 159.25 37 159.21875 36.882812 C 159.1875 36.757812 159.148438 36.632812 159.109375 36.507812 C 159.078125 36.382812 159.046875 36.265625 159.015625 36.148438 C 158.929688 35.867188 158.847656 35.578125 158.765625 35.273438 C 158.773438 35.492188 158.785156 35.710938 158.796875 35.929688 C 158.804688 36.117188 158.816406 36.316406 158.828125 36.523438 C 158.835938 36.734375 158.84375 36.914062 158.84375 37.070312 L 158.84375 42.070312 L 157.296875 42.070312 L 157.296875 33.820312 L 159.625 33.820312 L 161.09375 38.429688 C 161.132812 38.554688 161.175781 38.707031 161.21875 38.882812 C 161.257812 39.050781 161.304688 39.21875 161.359375 39.382812 C 161.398438 39.582031 161.445312 39.78125 161.5 39.976562 C 161.5625 39.78125 161.613281 39.585938 161.65625 39.398438 C 161.6875 39.316406 161.710938 39.234375 161.734375 39.148438 C 161.753906 39.066406 161.773438 38.984375 161.796875 38.898438 C 161.828125 38.816406 161.851562 38.738281 161.875 38.664062 C 161.894531 38.59375 161.914062 38.523438 161.9375 38.460938 L 163.390625 33.820312 L 165.6875 33.820312 L 165.6875 42.070312 Z M 168.796875 42.195312 C 168.492188 42.195312 168.222656 42.152344 167.984375 42.070312 C 167.742188 41.976562 167.539062 41.851562 167.375 41.695312 C 167.207031 41.53125 167.078125 41.328125 166.984375 41.085938 C 166.898438 40.847656 166.859375 40.578125 166.859375 40.273438 C 166.859375 39.898438 166.921875 39.585938 167.046875 39.335938 C 167.179688 39.078125 167.359375 38.867188 167.578125 38.710938 C 167.804688 38.554688 168.070312 38.441406 168.375 38.367188 C 168.6875 38.296875 169.015625 38.253906 169.359375 38.242188 L 170.71875 38.226562 L 170.71875 37.898438 C 170.71875 37.671875 170.695312 37.484375 170.65625 37.335938 C 170.613281 37.179688 170.550781 37.054688 170.46875 36.960938 C 170.394531 36.859375 170.300781 36.785156 170.1875 36.742188 C 170.070312 36.703125 169.941406 36.679688 169.796875 36.679688 C 169.660156 36.679688 169.535156 36.695312 169.421875 36.726562 C 169.316406 36.75 169.222656 36.796875 169.140625 36.867188 C 169.066406 36.929688 169.003906 37.019531 168.953125 37.132812 C 168.910156 37.25 168.878906 37.394531 168.859375 37.570312 L 167.140625 37.492188 C 167.179688 37.210938 167.265625 36.960938 167.390625 36.742188 C 167.515625 36.515625 167.6875 36.316406 167.90625 36.148438 C 168.132812 35.972656 168.410156 35.84375 168.734375 35.757812 C 169.054688 35.664062 169.429688 35.617188 169.859375 35.617188 C 170.253906 35.617188 170.601562 35.664062 170.90625 35.757812 C 171.21875 35.851562 171.484375 36 171.703125 36.195312 C 171.921875 36.394531 172.082031 36.632812 172.1875 36.914062 C 172.300781 37.195312 172.359375 37.519531 172.359375 37.882812 L 172.359375 40.195312 C 172.359375 40.34375 172.363281 40.476562 172.375 40.601562 C 172.394531 40.71875 172.421875 40.816406 172.453125 40.898438 C 172.492188 40.972656 172.546875 41.03125 172.609375 41.070312 C 172.679688 41.113281 172.773438 41.132812 172.890625 41.132812 C 173.015625 41.132812 173.132812 41.125 173.25 41.101562 L 173.25 41.992188 C 173.15625 42.015625 173.066406 42.035156 172.984375 42.054688 C 172.910156 42.074219 172.832031 42.089844 172.75 42.101562 C 172.675781 42.109375 172.59375 42.121094 172.5 42.132812 C 172.414062 42.140625 172.316406 42.148438 172.203125 42.148438 C 171.785156 42.148438 171.476562 42.046875 171.28125 41.835938 C 171.082031 41.628906 170.960938 41.332031 170.921875 40.945312 L 170.890625 40.945312 C 170.671875 41.332031 170.390625 41.640625 170.046875 41.867188 C 169.703125 42.085938 169.285156 42.195312 168.796875 42.195312 Z M 170.71875 39.132812 L 169.875 39.148438 C 169.695312 39.160156 169.53125 39.175781 169.375 39.195312 C 169.21875 39.21875 169.078125 39.265625 168.953125 39.335938 C 168.835938 39.398438 168.742188 39.5 168.671875 39.632812 C 168.597656 39.757812 168.5625 39.929688 168.5625 40.148438 C 168.5625 40.453125 168.628906 40.675781 168.765625 40.820312 C 168.910156 40.96875 169.097656 41.039062 169.328125 41.039062 C 169.535156 41.039062 169.722656 41 169.890625 40.914062 C 170.066406 40.820312 170.210938 40.703125 170.328125 40.554688 C 170.453125 40.410156 170.546875 40.242188 170.609375 40.054688 C 170.679688 39.859375 170.71875 39.660156 170.71875 39.460938 Z M 178.390625 42.070312 L 176.6875 39.195312 L 175.984375 39.695312 L 175.984375 42.070312 L 174.34375 42.070312 L 174.34375 33.367188 L 175.984375 33.367188 L 175.984375 38.351562 L 178.25 35.726562 L 180.015625 35.726562 L 177.796875 38.195312 L 180.1875 42.070312 Z M 181.34375 34.585938 L 181.34375 33.367188 L 182.984375 33.367188 L 182.984375 34.585938 Z M 181.34375 42.070312 L 181.34375 35.726562 L 182.984375 35.726562 L 182.984375 42.070312 Z M 188.453125 42.070312 L 188.453125 38.507812 C 188.453125 38.269531 188.429688 38.046875 188.390625 37.835938 C 188.347656 37.628906 188.28125 37.453125 188.1875 37.304688 C 188.101562 37.160156 187.988281 37.046875 187.84375 36.960938 C 187.695312 36.878906 187.519531 36.835938 187.3125 36.835938 C 187.113281 36.835938 186.929688 36.882812 186.765625 36.976562 C 186.609375 37.0625 186.46875 37.1875 186.34375 37.351562 C 186.226562 37.507812 186.140625 37.703125 186.078125 37.929688 C 186.015625 38.160156 185.984375 38.40625 185.984375 38.664062 L 185.984375 42.070312 L 184.34375 42.070312 L 184.34375 37.148438 C 184.34375 37.015625 184.335938 36.875 184.328125 36.726562 C 184.328125 36.582031 184.320312 36.445312 184.3125 36.320312 C 184.3125 36.1875 184.304688 36.066406 184.296875 35.960938 C 184.296875 35.859375 184.296875 35.78125 184.296875 35.726562 L 185.859375 35.726562 C 185.867188 35.78125 185.875 35.859375 185.875 35.960938 C 185.882812 36.066406 185.894531 36.179688 185.90625 36.304688 C 185.914062 36.429688 185.921875 36.554688 185.921875 36.679688 C 185.929688 36.804688 185.9375 36.910156 185.9375 36.992188 L 185.96875 36.992188 C 186.1875 36.503906 186.460938 36.148438 186.796875 35.929688 C 187.128906 35.710938 187.53125 35.601562 188 35.601562 C 188.382812 35.601562 188.707031 35.664062 188.96875 35.789062 C 189.226562 35.914062 189.441406 36.085938 189.609375 36.304688 C 189.773438 36.523438 189.894531 36.785156 189.96875 37.085938 C 190.050781 37.378906 190.09375 37.695312 190.09375 38.039062 L 190.09375 42.070312 Z M 194 44.617188 C 193.570312 44.617188 193.195312 44.574219 192.875 44.492188 C 192.5625 44.40625 192.289062 44.289062 192.0625 44.132812 C 191.84375 43.984375 191.664062 43.808594 191.53125 43.601562 C 191.394531 43.390625 191.300781 43.164062 191.25 42.914062 L 192.90625 42.710938 C 192.957031 42.96875 193.082031 43.167969 193.28125 43.304688 C 193.476562 43.449219 193.734375 43.523438 194.046875 43.523438 C 194.234375 43.523438 194.40625 43.496094 194.5625 43.445312 C 194.726562 43.390625 194.867188 43.296875 194.984375 43.164062 C 195.109375 43.039062 195.203125 42.867188 195.265625 42.648438 C 195.328125 42.4375 195.359375 42.171875 195.359375 41.851562 C 195.359375 41.75 195.359375 41.640625 195.359375 41.523438 C 195.359375 41.410156 195.359375 41.304688 195.359375 41.210938 C 195.367188 41.097656 195.375 40.992188 195.375 40.898438 L 195.359375 40.898438 C 195.171875 41.304688 194.898438 41.601562 194.546875 41.789062 C 194.203125 41.96875 193.789062 42.054688 193.3125 42.054688 C 192.914062 42.054688 192.570312 41.976562 192.28125 41.820312 C 191.988281 41.664062 191.742188 41.445312 191.546875 41.164062 C 191.359375 40.875 191.21875 40.535156 191.125 40.148438 C 191.039062 39.753906 191 39.320312 191 38.851562 C 191 38.363281 191.046875 37.921875 191.140625 37.523438 C 191.234375 37.128906 191.378906 36.789062 191.578125 36.507812 C 191.785156 36.21875 192.039062 35.992188 192.34375 35.835938 C 192.65625 35.679688 193.019531 35.601562 193.4375 35.601562 C 193.863281 35.601562 194.242188 35.695312 194.578125 35.882812 C 194.910156 36.0625 195.171875 36.347656 195.359375 36.742188 L 195.390625 36.742188 C 195.390625 36.671875 195.390625 36.582031 195.390625 36.476562 C 195.398438 36.363281 195.40625 36.257812 195.40625 36.164062 C 195.414062 36.0625 195.425781 35.972656 195.4375 35.898438 C 195.445312 35.816406 195.457031 35.757812 195.46875 35.726562 L 197.03125 35.726562 C 197.019531 35.875 197.007812 36.070312 197 36.320312 C 197 36.570312 197 36.863281 197 37.195312 L 197 41.882812 C 197 42.339844 196.929688 42.742188 196.796875 43.085938 C 196.660156 43.429688 196.460938 43.710938 196.203125 43.929688 C 195.953125 44.15625 195.640625 44.328125 195.265625 44.445312 C 194.890625 44.558594 194.46875 44.617188 194 44.617188 Z M 195.375 38.804688 C 195.375 38.410156 195.332031 38.082031 195.25 37.820312 C 195.175781 37.550781 195.078125 37.335938 194.953125 37.179688 C 194.828125 37.015625 194.679688 36.898438 194.515625 36.835938 C 194.359375 36.773438 194.195312 36.742188 194.03125 36.742188 C 193.820312 36.742188 193.632812 36.785156 193.46875 36.867188 C 193.300781 36.941406 193.160156 37.066406 193.046875 37.242188 C 192.941406 37.410156 192.859375 37.628906 192.796875 37.898438 C 192.734375 38.160156 192.703125 38.476562 192.703125 38.851562 C 192.703125 39.53125 192.8125 40.046875 193.03125 40.398438 C 193.25 40.742188 193.578125 40.914062 194.015625 40.914062 C 194.179688 40.914062 194.34375 40.882812 194.5 40.820312 C 194.664062 40.757812 194.8125 40.648438 194.9375 40.492188 C 195.070312 40.328125 195.175781 40.109375 195.25 39.835938 C 195.332031 39.566406 195.375 39.222656 195.375 38.804688 Z M 203.265625 36.835938 L 203.265625 42.070312 L 201.625 42.070312 L 201.625 36.835938 L 200.703125 36.835938 L 200.703125 35.726562 L 201.625 35.726562 L 201.625 35.070312 C 201.625 34.832031 201.65625 34.609375 201.71875 34.398438 C 201.78125 34.191406 201.878906 34.015625 202.015625 33.867188 C 202.160156 33.710938 202.347656 33.59375 202.578125 33.507812 C 202.816406 33.414062 203.117188 33.367188 203.484375 33.367188 C 203.671875 33.367188 203.851562 33.378906 204.03125 33.398438 C 204.207031 33.421875 204.367188 33.441406 204.515625 33.460938 L 204.515625 34.523438 C 204.453125 34.515625 204.375 34.503906 204.28125 34.492188 C 204.195312 34.484375 204.117188 34.476562 204.046875 34.476562 C 203.890625 34.476562 203.757812 34.492188 203.65625 34.523438 C 203.5625 34.554688 203.484375 34.601562 203.421875 34.664062 C 203.367188 34.726562 203.328125 34.804688 203.296875 34.898438 C 203.273438 34.992188 203.265625 35.101562 203.265625 35.226562 L 203.265625 35.726562 L 204.515625 35.726562 L 204.515625 36.835938 Z M 206.796875 42.195312 C 206.492188 42.195312 206.222656 42.152344 205.984375 42.070312 C 205.742188 41.976562 205.539062 41.851562 205.375 41.695312 C 205.207031 41.53125 205.078125 41.328125 204.984375 41.085938 C 204.898438 40.847656 204.859375 40.578125 204.859375 40.273438 C 204.859375 39.898438 204.921875 39.585938 205.046875 39.335938 C 205.179688 39.078125 205.359375 38.867188 205.578125 38.710938 C 205.804688 38.554688 206.070312 38.441406 206.375 38.367188 C 206.6875 38.296875 207.015625 38.253906 207.359375 38.242188 L 208.71875 38.226562 L 208.71875 37.898438 C 208.71875 37.671875 208.695312 37.484375 208.65625 37.335938 C 208.613281 37.179688 208.550781 37.054688 208.46875 36.960938 C 208.394531 36.859375 208.300781 36.785156 208.1875 36.742188 C 208.070312 36.703125 207.941406 36.679688 207.796875 36.679688 C 207.660156 36.679688 207.535156 36.695312 207.421875 36.726562 C 207.316406 36.75 207.222656 36.796875 207.140625 36.867188 C 207.066406 36.929688 207.003906 37.019531 206.953125 37.132812 C 206.910156 37.25 206.878906 37.394531 206.859375 37.570312 L 205.140625 37.492188 C 205.179688 37.210938 205.265625 36.960938 205.390625 36.742188 C 205.515625 36.515625 205.6875 36.316406 205.90625 36.148438 C 206.132812 35.972656 206.410156 35.84375 206.734375 35.757812 C 207.054688 35.664062 207.429688 35.617188 207.859375 35.617188 C 208.253906 35.617188 208.601562 35.664062 208.90625 35.757812 C 209.21875 35.851562 209.484375 36 209.703125 36.195312 C 209.921875 36.394531 210.082031 36.632812 210.1875 36.914062 C 210.300781 37.195312 210.359375 37.519531 210.359375 37.882812 L 210.359375 40.195312 C 210.359375 40.34375 210.363281 40.476562 210.375 40.601562 C 210.394531 40.71875 210.421875 40.816406 210.453125 40.898438 C 210.492188 40.972656 210.546875 41.03125 210.609375 41.070312 C 210.679688 41.113281 210.773438 41.132812 210.890625 41.132812 C 211.015625 41.132812 211.132812 41.125 211.25 41.101562 L 211.25 41.992188 C 211.15625 42.015625 211.066406 42.035156 210.984375 42.054688 C 210.910156 42.074219 210.832031 42.089844 210.75 42.101562 C 210.675781 42.109375 210.59375 42.121094 210.5 42.132812 C 210.414062 42.140625 210.316406 42.148438 210.203125 42.148438 C 209.785156 42.148438 209.476562 42.046875 209.28125 41.835938 C 209.082031 41.628906 208.960938 41.332031 208.921875 40.945312 L 208.890625 40.945312 C 208.671875 41.332031 208.390625 41.640625 208.046875 41.867188 C 207.703125 42.085938 207.285156 42.195312 206.796875 42.195312 Z M 208.71875 39.132812 L 207.875 39.148438 C 207.695312 39.160156 207.53125 39.175781 207.375 39.195312 C 207.21875 39.21875 207.078125 39.265625 206.953125 39.335938 C 206.835938 39.398438 206.742188 39.5 206.671875 39.632812 C 206.597656 39.757812 206.5625 39.929688 206.5625 40.148438 C 206.5625 40.453125 206.628906 40.675781 206.765625 40.820312 C 206.910156 40.96875 207.097656 41.039062 207.328125 41.039062 C 207.535156 41.039062 207.722656 41 207.890625 40.914062 C 208.066406 40.820312 208.210938 40.703125 208.328125 40.554688 C 208.453125 40.410156 208.546875 40.242188 208.609375 40.054688 C 208.679688 39.859375 208.71875 39.660156 208.71875 39.460938 Z M 216.453125 42.070312 L 216.453125 38.507812 C 216.453125 38.269531 216.429688 38.046875 216.390625 37.835938 C 216.347656 37.628906 216.28125 37.453125 216.1875 37.304688 C 216.101562 37.160156 215.988281 37.046875 215.84375 36.960938 C 215.695312 36.878906 215.519531 36.835938 215.3125 36.835938 C 215.113281 36.835938 214.929688 36.882812 214.765625 36.976562 C 214.609375 37.0625 214.46875 37.1875 214.34375 37.351562 C 214.226562 37.507812 214.140625 37.703125 214.078125 37.929688 C 214.015625 38.160156 213.984375 38.40625 213.984375 38.664062 L 213.984375 42.070312 L 212.34375 42.070312 L 212.34375 37.148438 C 212.34375 37.015625 212.335938 36.875 212.328125 36.726562 C 212.328125 36.582031 212.320312 36.445312 212.3125 36.320312 C 212.3125 36.1875 212.304688 36.066406 212.296875 35.960938 C 212.296875 35.859375 212.296875 35.78125 212.296875 35.726562 L 213.859375 35.726562 C 213.867188 35.78125 213.875 35.859375 213.875 35.960938 C 213.882812 36.066406 213.894531 36.179688 213.90625 36.304688 C 213.914062 36.429688 213.921875 36.554688 213.921875 36.679688 C 213.929688 36.804688 213.9375 36.910156 213.9375 36.992188 L 213.96875 36.992188 C 214.1875 36.503906 214.460938 36.148438 214.796875 35.929688 C 215.128906 35.710938 215.53125 35.601562 216 35.601562 C 216.382812 35.601562 216.707031 35.664062 216.96875 35.789062 C 217.226562 35.914062 217.441406 36.085938 217.609375 36.304688 C 217.773438 36.523438 217.894531 36.785156 217.96875 37.085938 C 218.050781 37.378906 218.09375 37.695312 218.09375 38.039062 L 218.09375 42.070312 Z M 221.984375 42.195312 C 221.472656 42.195312 221.03125 42.117188 220.65625 41.960938 C 220.28125 41.796875 219.96875 41.570312 219.71875 41.289062 C 219.46875 41.007812 219.28125 40.671875 219.15625 40.273438 C 219.03125 39.867188 218.96875 39.421875 218.96875 38.929688 C 218.96875 38.410156 219.035156 37.945312 219.171875 37.539062 C 219.304688 37.125 219.503906 36.773438 219.765625 36.492188 C 220.023438 36.203125 220.34375 35.984375 220.71875 35.835938 C 221.09375 35.691406 221.519531 35.617188 222 35.617188 C 222.414062 35.617188 222.78125 35.675781 223.09375 35.789062 C 223.414062 35.894531 223.691406 36.039062 223.921875 36.226562 C 224.148438 36.414062 224.332031 36.640625 224.46875 36.898438 C 224.613281 37.160156 224.71875 37.4375 224.78125 37.726562 L 223.125 37.804688 C 223.070312 37.484375 222.953125 37.226562 222.765625 37.039062 C 222.578125 36.84375 222.3125 36.742188 221.96875 36.742188 C 221.53125 36.742188 221.207031 36.925781 221 37.289062 C 220.800781 37.65625 220.703125 38.179688 220.703125 38.867188 C 220.703125 40.328125 221.132812 41.054688 222 41.054688 C 222.3125 41.054688 222.570312 40.960938 222.78125 40.773438 C 222.988281 40.578125 223.117188 40.28125 223.171875 39.882812 L 224.828125 39.960938 C 224.785156 40.253906 224.691406 40.535156 224.546875 40.804688 C 224.410156 41.066406 224.222656 41.300781 223.984375 41.507812 C 223.753906 41.71875 223.46875 41.882812 223.125 42.007812 C 222.789062 42.132812 222.410156 42.195312 221.984375 42.195312 Z M 228.921875 40.664062 L 230.390625 35.726562 L 232.109375 35.726562 L 229.609375 42.398438 C 229.285156 43.167969 228.957031 43.714844 228.625 44.039062 C 228.25 44.382812 227.757812 44.554688 227.15625 44.554688 C 226.757812 44.554688 226.414062 44.53125 226.125 44.492188 L 226.125 43.320312 C 226.332031 43.351562 226.519531 43.367188 226.6875 43.367188 C 226.851562 43.367188 227 43.34375 227.125 43.304688 C 227.25 43.273438 227.359375 43.214844 227.453125 43.132812 C 227.648438 42.964844 227.832031 42.683594 228 42.289062 L 228.109375 42.007812 L 225.59375 35.726562 L 227.328125 35.726562 Z M 240.453125 42.070312 C 240.441406 42.039062 240.429688 41.988281 240.421875 41.914062 C 240.410156 41.832031 240.398438 41.738281 240.390625 41.632812 C 240.378906 41.53125 240.367188 41.425781 240.359375 41.320312 C 240.359375 41.21875 240.359375 41.125 240.359375 41.039062 L 240.328125 41.039062 C 240.140625 41.445312 239.875 41.742188 239.53125 41.929688 C 239.1875 42.105469 238.78125 42.195312 238.3125 42.195312 C 237.90625 42.195312 237.554688 42.109375 237.265625 41.945312 C 236.984375 41.78125 236.742188 41.550781 236.546875 41.257812 C 236.359375 40.96875 236.21875 40.625 236.125 40.226562 C 236.039062 39.820312 236 39.378906 236 38.898438 C 236 38.421875 236.046875 37.984375 236.140625 37.585938 C 236.234375 37.179688 236.378906 36.832031 236.578125 36.539062 C 236.773438 36.25 237.023438 36.023438 237.328125 35.867188 C 237.640625 35.703125 238.007812 35.617188 238.4375 35.617188 C 238.632812 35.617188 238.828125 35.640625 239.015625 35.679688 C 239.210938 35.722656 239.394531 35.789062 239.5625 35.882812 C 239.726562 35.96875 239.875 36.082031 240 36.226562 C 240.132812 36.363281 240.25 36.53125 240.34375 36.726562 L 240.359375 36.726562 C 240.359375 36.695312 240.359375 36.644531 240.359375 36.570312 C 240.359375 36.488281 240.359375 36.398438 240.359375 36.304688 C 240.359375 36.203125 240.351562 36.097656 240.34375 35.992188 C 240.34375 35.890625 240.34375 35.789062 240.34375 35.695312 L 240.34375 33.367188 L 242 33.367188 L 242 40.679688 C 242 40.992188 242.003906 41.269531 242.015625 41.507812 C 242.023438 41.75 242.035156 41.9375 242.046875 42.070312 Z M 240.375 38.867188 C 240.375 38.453125 240.332031 38.109375 240.25 37.835938 C 240.175781 37.554688 240.070312 37.335938 239.9375 37.179688 C 239.8125 37.015625 239.664062 36.898438 239.5 36.835938 C 239.34375 36.765625 239.179688 36.726562 239.015625 36.726562 C 238.804688 36.726562 238.617188 36.769531 238.453125 36.851562 C 238.296875 36.9375 238.160156 37.066406 238.046875 37.242188 C 237.929688 37.421875 237.84375 37.644531 237.78125 37.914062 C 237.726562 38.1875 237.703125 38.515625 237.703125 38.898438 C 237.703125 40.335938 238.132812 41.054688 239 41.054688 C 239.164062 41.054688 239.332031 41.023438 239.5 40.960938 C 239.664062 40.890625 239.8125 40.769531 239.9375 40.601562 C 240.0625 40.4375 240.164062 40.210938 240.25 39.929688 C 240.332031 39.640625 240.375 39.285156 240.375 38.867188 Z M 243.34375 42.070312 L 243.34375 37.210938 C 243.34375 37.078125 243.335938 36.9375 243.328125 36.789062 C 243.328125 36.632812 243.320312 36.488281 243.3125 36.351562 C 243.3125 36.207031 243.304688 36.082031 243.296875 35.976562 C 243.296875 35.863281 243.296875 35.78125 243.296875 35.726562 L 244.859375 35.726562 C 244.867188 35.78125 244.875 35.863281 244.875 35.976562 C 244.882812 36.09375 244.894531 36.21875 244.90625 36.351562 C 244.914062 36.488281 244.921875 36.625 244.921875 36.757812 C 244.929688 36.894531 244.9375 37.003906 244.9375 37.085938 L 244.96875 37.085938 C 245.039062 36.859375 245.117188 36.65625 245.203125 36.476562 C 245.285156 36.289062 245.382812 36.132812 245.5 36.007812 C 245.613281 35.875 245.75 35.773438 245.90625 35.710938 C 246.0625 35.640625 246.253906 35.601562 246.484375 35.601562 C 246.578125 35.601562 246.671875 35.613281 246.765625 35.632812 C 246.859375 35.65625 246.929688 35.675781 246.984375 35.695312 L 246.984375 37.070312 C 246.878906 37.050781 246.773438 37.03125 246.671875 37.007812 C 246.566406 36.988281 246.4375 36.976562 246.28125 36.976562 C 245.875 36.976562 245.554688 37.144531 245.328125 37.476562 C 245.097656 37.8125 244.984375 38.304688 244.984375 38.960938 L 244.984375 42.070312 Z M 248.34375 34.585938 L 248.34375 33.367188 L 249.984375 33.367188 L 249.984375 34.585938 Z M 248.34375 42.070312 L 248.34375 35.726562 L 249.984375 35.726562 L 249.984375 42.070312 Z M 255.453125 42.070312 L 255.453125 38.507812 C 255.453125 38.269531 255.429688 38.046875 255.390625 37.835938 C 255.347656 37.628906 255.28125 37.453125 255.1875 37.304688 C 255.101562 37.160156 254.988281 37.046875 254.84375 36.960938 C 254.695312 36.878906 254.519531 36.835938 254.3125 36.835938 C 254.113281 36.835938 253.929688 36.882812 253.765625 36.976562 C 253.609375 37.0625 253.46875 37.1875 253.34375 37.351562 C 253.226562 37.507812 253.140625 37.703125 253.078125 37.929688 C 253.015625 38.160156 252.984375 38.40625 252.984375 38.664062 L 252.984375 42.070312 L 251.34375 42.070312 L 251.34375 37.148438 C 251.34375 37.015625 251.335938 36.875 251.328125 36.726562 C 251.328125 36.582031 251.320312 36.445312 251.3125 36.320312 C 251.3125 36.1875 251.304688 36.066406 251.296875 35.960938 C 251.296875 35.859375 251.296875 35.78125 251.296875 35.726562 L 252.859375 35.726562 C 252.867188 35.78125 252.875 35.859375 252.875 35.960938 C 252.882812 36.066406 252.894531 36.179688 252.90625 36.304688 C 252.914062 36.429688 252.921875 36.554688 252.921875 36.679688 C 252.929688 36.804688 252.9375 36.910156 252.9375 36.992188 L 252.96875 36.992188 C 253.1875 36.503906 253.460938 36.148438 253.796875 35.929688 C 254.128906 35.710938 254.53125 35.601562 255 35.601562 C 255.382812 35.601562 255.707031 35.664062 255.96875 35.789062 C 256.226562 35.914062 256.441406 36.085938 256.609375 36.304688 C 256.773438 36.523438 256.894531 36.785156 256.96875 37.085938 C 257.050781 37.378906 257.09375 37.695312 257.09375 38.039062 L 257.09375 42.070312 Z M 262.390625 42.070312 L 260.6875 39.195312 L 259.984375 39.695312 L 259.984375 42.070312 L 258.34375 42.070312 L 258.34375 33.367188 L 259.984375 33.367188 L 259.984375 38.351562 L 262.25 35.726562 L 264.015625 35.726562 L 261.796875 38.195312 L 264.1875 42.070312 Z M 270.6875 40.210938 C 270.6875 40.523438 270.617188 40.800781 270.484375 41.039062 C 270.359375 41.28125 270.175781 41.488281 269.9375 41.664062 C 269.695312 41.832031 269.398438 41.960938 269.046875 42.054688 C 268.691406 42.148438 268.289062 42.195312 267.84375 42.195312 C 267.445312 42.195312 267.082031 42.164062 266.75 42.101562 C 266.425781 42.039062 266.140625 41.941406 265.890625 41.804688 C 265.648438 41.671875 265.445312 41.5 265.28125 41.289062 C 265.125 41.070312 265.003906 40.804688 264.921875 40.492188 L 266.375 40.273438 C 266.414062 40.453125 266.476562 40.597656 266.5625 40.710938 C 266.644531 40.816406 266.742188 40.898438 266.859375 40.960938 C 266.984375 41.015625 267.125 41.050781 267.28125 41.070312 C 267.445312 41.09375 267.632812 41.101562 267.84375 41.101562 C 268.03125 41.101562 268.203125 41.09375 268.359375 41.070312 C 268.523438 41.050781 268.664062 41.015625 268.78125 40.960938 C 268.90625 40.898438 269 40.820312 269.0625 40.726562 C 269.132812 40.632812 269.171875 40.515625 269.171875 40.367188 C 269.171875 40.203125 269.125 40.070312 269.03125 39.976562 C 268.9375 39.882812 268.804688 39.804688 268.640625 39.742188 C 268.472656 39.679688 268.273438 39.628906 268.046875 39.585938 C 267.828125 39.546875 267.585938 39.492188 267.328125 39.429688 C 267.066406 39.378906 266.804688 39.3125 266.546875 39.226562 C 266.285156 39.144531 266.050781 39.035156 265.84375 38.898438 C 265.644531 38.753906 265.484375 38.570312 265.359375 38.351562 C 265.234375 38.132812 265.171875 37.859375 265.171875 37.523438 C 265.171875 37.222656 265.226562 36.957031 265.34375 36.726562 C 265.46875 36.488281 265.640625 36.285156 265.859375 36.117188 C 266.085938 35.953125 266.367188 35.828125 266.703125 35.742188 C 267.035156 35.648438 267.421875 35.601562 267.859375 35.601562 C 268.203125 35.601562 268.519531 35.640625 268.8125 35.710938 C 269.113281 35.773438 269.378906 35.875 269.609375 36.007812 C 269.847656 36.144531 270.046875 36.320312 270.203125 36.539062 C 270.359375 36.757812 270.46875 37.019531 270.53125 37.320312 L 269.078125 37.476562 C 269.046875 37.320312 268.992188 37.195312 268.921875 37.101562 C 268.859375 37 268.773438 36.921875 268.671875 36.867188 C 268.566406 36.804688 268.445312 36.765625 268.3125 36.742188 C 268.175781 36.710938 268.023438 36.695312 267.859375 36.695312 C 267.460938 36.695312 267.164062 36.75 266.96875 36.851562 C 266.78125 36.957031 266.6875 37.125 266.6875 37.351562 C 266.6875 37.5 266.722656 37.613281 266.796875 37.695312 C 266.878906 37.78125 266.992188 37.851562 267.140625 37.914062 C 267.285156 37.96875 267.457031 38.015625 267.65625 38.054688 C 267.863281 38.097656 268.085938 38.148438 268.328125 38.210938 C 268.617188 38.273438 268.90625 38.347656 269.1875 38.429688 C 269.46875 38.515625 269.71875 38.628906 269.9375 38.773438 C 270.164062 38.921875 270.347656 39.109375 270.484375 39.335938 C 270.617188 39.566406 270.6875 39.859375 270.6875 40.210938 Z M 282.5 31.070312 L 283.5 31.070312 L 283.5 32.070312 L 282.5 32.070312 Z M 279.5 32.070312 L 280.5 32.070312 L 280.5 33.070312 L 279.5 33.070312 Z M 280.5 32.070312 L 281.5 32.070312 L 281.5 33.070312 L 280.5 33.070312 Z M 282.5 32.070312 L 283.5 32.070312 L 283.5 33.070312 L 282.5 33.070312 Z M 283.5 32.070312 L 284.5 32.070312 L 284.5 33.070312 L 283.5 33.070312 Z M 279.5 33.070312 L 280.5 33.070312 L 280.5 34.070312 L 279.5 34.070312 Z M 282.5 33.070312 L 283.5 33.070312 L 283.5 34.070312 L 282.5 34.070312 Z M 281.5 34.070312 L 282.5 34.070312 L 282.5 35.070312 L 281.5 35.070312 Z M 282.5 34.070312 L 283.5 34.070312 L 283.5 35.070312 L 282.5 35.070312 Z M 280.5 35.070312 L 281.5 35.070312 L 281.5 36.070312 L 280.5 36.070312 Z M 281.5 35.070312 L 282.5 35.070312 L 282.5 36.070312 L 281.5 36.070312 Z M 282.5 35.070312 L 283.5 35.070312 L 283.5 36.070312 L 282.5 36.070312 Z M 280.5 36.070312 L 281.5 36.070312 L 281.5 37.070312 L 280.5 37.070312 Z M 281.5 36.070312 L 282.5 36.070312 L 282.5 37.070312 L 281.5 37.070312 Z M 282.5 36.070312 L 283.5 36.070312 L 283.5 37.070312 L 282.5 37.070312 Z M 279.5 37.070312 L 280.5 37.070312 L 280.5 38.070312 L 279.5 38.070312 Z M 280.5 37.070312 L 281.5 37.070312 L 281.5 38.070312 L 280.5 38.070312 Z M 281.5 37.070312 L 282.5 37.070312 L 282.5 38.070312 L 281.5 38.070312 Z M 282.5 37.070312 L 283.5 37.070312 L 283.5 38.070312 L 282.5 38.070312 Z M 283.5 37.070312 L 284.5 37.070312 L 284.5 38.070312 L 283.5 38.070312 Z M 279.5 38.070312 L 280.5 38.070312 L 280.5 39.070312 L 279.5 39.070312 Z M 280.5 38.070312 L 281.5 38.070312 L 281.5 39.070312 L 280.5 39.070312 Z M 281.5 38.070312 L 282.5 38.070312 L 282.5 39.070312 L 281.5 39.070312 Z M 282.5 38.070312 L 283.5 38.070312 L 283.5 39.070312 L 282.5 39.070312 Z M 283.5 38.070312 L 284.5 38.070312 L 284.5 39.070312 L 283.5 39.070312 Z M 279.5 39.070312 L 280.5 39.070312 L 280.5 40.070312 L 279.5 40.070312 Z M 280.5 39.070312 L 281.5 39.070312 L 281.5 40.070312 L 280.5 40.070312 Z M 281.5 39.070312 L 282.5 39.070312 L 282.5 40.070312 L 281.5 40.070312 Z M 282.5 39.070312 L 283.5 39.070312 L 283.5 40.070312 L 282.5 40.070312 Z M 283.5 39.070312 L 284.5 39.070312 L 284.5 40.070312 L 283.5 40.070312 Z M 280.5 40.070312 L 281.5 40.070312 L 281.5 41.070312 L 280.5 41.070312 Z M 281.5 40.070312 L 282.5 40.070312 L 282.5 41.070312 L 281.5 41.070312 Z M 282.5 40.070312 L 283.5 40.070312 L 283.5 41.070312 L 282.5 41.070312 Z M 281.5 41.070312 L 282.5 41.070312 L 282.5 42.070312 L 281.5 42.070312 Z M 281.5 42.070312 L 282.5 42.070312 L 282.5 43.070312 L 281.5 43.070312 Z M 281.5 43.070312 L 282.5 43.070312 L 282.5 44.070312 L 281.5 44.070312 Z M 156.5 30.953125 "/>
<path style="fill-rule:nonzero;fill:rgb(96.078431%,82.352941%,28.235294%);fill-opacity:1;stroke-width:2;stroke-linecap:butt;stroke-linejoin:bevel;stroke:rgb(100%,100%,100%);stroke-opacity:1;stroke-miterlimit:10;" d="M 200 55 C 254.519531 55 302.421875 91.175781 317.34375 143.613281 C 332.261719 196.050781 310.578125 252.023438 264.226562 280.726562 L 200 177 Z M 200 55 "/>
<path style="fill-rule:nonzero;fill:rgb(89.019608%,54.509804%,51.764706%);fill-opacity:1;stroke-width:2;stroke-linecap:butt;stroke-linejoin:bevel;stroke:rgb(100%,100%,100%);stroke-opacity:1;stroke-miterlimit:10;" d="M 264.226562 280.726562 C 208.183594 315.425781 134.710938 299.335938 98.300781 244.386719 L 200 177 Z M 264.226562 280.726562 "/>
<path style="fill-rule:nonzero;fill:rgb(12.54902%,36.862745%,44.313725%);fill-opacity:1;stroke-width:2;stroke-linecap:butt;stroke-linejoin:bevel;stroke:rgb(100%,100%,100%);stroke-opacity:1;stroke-miterlimit:10;" d="M 98.300781 244.386719 C 65.074219 194.246094 73.355469 127.367188 117.808594 86.839844 L 200 177 Z M 98.300781 244.386719 "/>
<path style="fill-rule:nonzero;fill:rgb(39.215686%,90.980392%,23.529412%);fill-opacity:1;stroke-width:2;stroke-linecap:butt;stroke-linejoin:bevel;stroke:rgb(100%,100%,100%);stroke-opacity:1;stroke-miterlimit:10;" d="M 117.808594 86.839844 C 140.28125 66.355469 169.59375 55 200 55 L 200 177 Z M 117.808594 86.839844 "/>
</g>
</svg>
