<?xml version="1.0" encoding="UTF-8"?>
<svg xmlns="http://www.w3.org/2000/svg" xmlns:xlink="http://www.w3.org/1999/xlink" width="400pt" height="300pt" viewBox="0 0 400 300" version="1.1">
<g id="surface1">
<path style="fill-rule:nonzero;fill:rgb(96.078431%,82.352941%,28.235294%);fill-opacity:1;stroke-width:2;stroke-linecap:butt;stroke-linejoin:miter;stroke:rgb(100%,100%,100%);stroke-opacity:1;stroke-miterlimit:10;" d="M 20 10 L 60 10 L 60 22 L 20 22 Z M 20 10 "/>
<path style=" stroke:none;fill-rule:nonzero;fill:rgb(40%,40%,40%);fill-opacity:1;" d="M 66.828125 11.980469 L 66.828125 20.546875 L 68.710938 20.546875 L 68.710938 17.007812 L 72.300781 17.007812 L 72.300781 15.542969 L 68.710938 15.542969 L 68.710938 13.5625 L 72.851562 13.5625 L 72.851562 11.980469 Z M 73.695312 11.980469 L 73.695312 20.546875 L 75.398438 20.546875 L 75.398438 11.980469 Z M 79.707031 21.316406 L 82.300781 14.34375 L 80.535156 14.34375 L 79.179688 18.589844 L 79.15625 18.589844 L 77.753906 14.34375 L 75.941406 14.34375 L 78.113281 20.164062 C 78.160156 20.285156 78.183594 20.410156 78.183594 20.546875 C 78.183594 20.730469 78.128906 20.898438 78.023438 21.050781 C 77.914062 21.203125 77.746094 21.289062 77.523438 21.316406 C 77.355469 21.324219 77.1875 21.320312 77.019531 21.304688 C 76.851562 21.289062 76.6875 21.269531 76.527344 21.253906 L 76.527344 22.660156 C 76.703125 22.675781 76.878906 22.6875 77.050781 22.699219 C 77.222656 22.710938 77.394531 22.71875 77.570312 22.71875 C 78.15625 22.71875 78.613281 22.609375 78.941406 22.394531 C 79.269531 22.179688 79.523438 21.820312 79.707031 21.316406 Z M 84.398438 13.382812 L 84.398438 11.980469 L 82.695312 11.980469 L 82.695312 13.382812 Z M 82.695312 14.34375 L 82.695312 20.546875 L 84.398438 20.546875 L 84.398438 14.34375 Z M 85.648438 14.34375 L 85.648438 20.546875 L 87.351562 20.546875 L 87.351562 17.292969 C 87.351562 16.664062 87.457031 16.207031 87.664062 15.933594 C 87.871094 15.65625 88.207031 15.519531 88.671875 15.519531 C 89.078125 15.519531 89.363281 15.644531 89.523438 15.898438 C 89.683594 16.148438 89.765625 16.53125 89.765625 17.042969 L 89.765625 20.546875 L 91.46875 20.546875 L 91.46875 16.730469 C 91.46875 16.347656 91.433594 15.996094 91.367188 15.679688 C 91.296875 15.363281 91.179688 15.097656 91.011719 14.875 C 90.84375 14.65625 90.613281 14.484375 90.320312 14.359375 C 90.03125 14.238281 89.65625 14.175781 89.199219 14.175781 C 88.839844 14.175781 88.488281 14.257812 88.144531 14.421875 C 87.800781 14.585938 87.519531 14.847656 87.304688 15.207031 L 87.269531 15.207031 L 87.269531 14.34375 Z M 95.539062 19.082031 C 95.277344 19.082031 95.054688 19.027344 94.878906 18.914062 C 94.703125 18.800781 94.5625 18.660156 94.453125 18.484375 C 94.347656 18.308594 94.269531 18.109375 94.226562 17.890625 C 94.183594 17.667969 94.160156 17.445312 94.160156 17.222656 C 94.160156 16.992188 94.1875 16.769531 94.238281 16.558594 C 94.289062 16.34375 94.375 16.15625 94.488281 15.992188 C 94.605469 15.828125 94.75 15.699219 94.921875 15.601562 C 95.09375 15.507812 95.300781 15.457031 95.539062 15.457031 C 95.820312 15.457031 96.050781 15.511719 96.234375 15.613281 C 96.417969 15.71875 96.566406 15.859375 96.679688 16.035156 C 96.792969 16.210938 96.871094 16.414062 96.921875 16.640625 C 96.96875 16.867188 96.992188 17.109375 96.992188 17.367188 C 96.992188 17.589844 96.960938 17.804688 96.902344 18.007812 C 96.84375 18.210938 96.753906 18.394531 96.632812 18.554688 C 96.511719 18.714844 96.359375 18.84375 96.175781 18.9375 C 95.992188 19.035156 95.78125 19.082031 95.539062 19.082031 Z M 98.613281 20.152344 L 98.613281 14.34375 L 96.992188 14.34375 L 96.992188 15.171875 L 96.96875 15.171875 C 96.761719 14.8125 96.503906 14.554688 96.195312 14.402344 C 95.886719 14.25 95.527344 14.175781 95.121094 14.175781 C 94.6875 14.175781 94.304688 14.257812 93.972656 14.425781 C 93.640625 14.59375 93.363281 14.820312 93.140625 15.105469 C 92.917969 15.390625 92.746094 15.71875 92.628906 16.089844 C 92.511719 16.460938 92.457031 16.847656 92.457031 17.246094 C 92.457031 17.671875 92.507812 18.074219 92.605469 18.453125 C 92.707031 18.832031 92.863281 19.164062 93.078125 19.449219 C 93.296875 19.734375 93.570312 19.957031 93.90625 20.121094 C 94.242188 20.285156 94.644531 20.367188 95.109375 20.367188 C 95.484375 20.367188 95.84375 20.289062 96.183594 20.132812 C 96.523438 19.976562 96.785156 19.734375 96.96875 19.40625 L 96.992188 19.40625 L 96.992188 20.222656 C 97 20.664062 96.894531 21.027344 96.675781 21.316406 C 96.453125 21.601562 96.105469 21.746094 95.625 21.746094 C 95.320312 21.746094 95.050781 21.683594 94.820312 21.5625 C 94.589844 21.4375 94.433594 21.214844 94.351562 20.894531 L 92.660156 20.894531 C 92.683594 21.246094 92.78125 21.550781 92.953125 21.800781 C 93.125 22.054688 93.34375 22.257812 93.601562 22.417969 C 93.863281 22.578125 94.148438 22.695312 94.464844 22.773438 C 94.78125 22.847656 95.09375 22.886719 95.394531 22.886719 C 96.109375 22.886719 96.675781 22.789062 97.101562 22.597656 C 97.523438 22.40625 97.847656 22.171875 98.070312 21.898438 C 98.296875 21.621094 98.441406 21.324219 98.511719 21.003906 C 98.578125 20.683594 98.613281 20.398438 98.613281 20.152344 Z M 66 8.847656 "/>
<path style="fill-rule:nonzero;fill:rgb(89.019608%,54.509804%,51.764706%);fill-opacity:1;stroke-width:2;stroke-linecap:butt;stroke-linejoin:miter;stroke:rgb(100%,100%,100%);stroke-opacity:1;stroke-miterlimit:10;" d="M 109 10 L 149 10 L 149 22 L 109 22 Z M 109 10 "/>
<path style=" stroke:none;fill-rule:nonzero;fill:rgb(40%,40%,40%);fill-opacity:1;" d="M 157.710938 18.960938 L 157.710938 13.5625 L 159.054688 13.5625 C 159.519531 13.5625 159.910156 13.628906 160.226562 13.761719 C 160.542969 13.894531 160.796875 14.082031 160.988281 14.332031 C 161.179688 14.578125 161.316406 14.875 161.402344 15.226562 C 161.484375 15.574219 161.527344 15.960938 161.527344 16.394531 C 161.527344 16.867188 161.46875 17.265625 161.347656 17.59375 C 161.226562 17.921875 161.066406 18.1875 160.867188 18.394531 C 160.667969 18.597656 160.441406 18.742188 160.183594 18.832031 C 159.929688 18.917969 159.664062 18.960938 159.390625 18.960938 Z M 155.828125 11.980469 L 155.828125 20.546875 L 159.523438 20.546875 C 160.179688 20.546875 160.75 20.4375 161.234375 20.21875 C 161.71875 19.996094 162.121094 19.695312 162.445312 19.3125 C 162.769531 18.925781 163.011719 18.472656 163.171875 17.941406 C 163.332031 17.414062 163.410156 16.839844 163.410156 16.214844 C 163.410156 15.503906 163.3125 14.882812 163.117188 14.355469 C 162.921875 13.828125 162.648438 13.386719 162.300781 13.035156 C 161.953125 12.683594 161.542969 12.417969 161.066406 12.242188 C 160.589844 12.066406 160.074219 11.980469 159.523438 11.980469 Z M 164.574219 16.25 C 164.597656 15.851562 164.699219 15.519531 164.875 15.253906 C 165.050781 14.992188 165.277344 14.777344 165.546875 14.617188 C 165.820312 14.457031 166.125 14.34375 166.464844 14.277344 C 166.804688 14.210938 167.148438 14.175781 167.492188 14.175781 C 167.804688 14.175781 168.121094 14.195312 168.441406 14.242188 C 168.761719 14.285156 169.050781 14.371094 169.316406 14.5 C 169.582031 14.628906 169.796875 14.804688 169.964844 15.03125 C 170.132812 15.261719 170.214844 15.5625 170.214844 15.9375 L 170.214844 19.167969 C 170.214844 19.445312 170.230469 19.714844 170.265625 19.972656 C 170.296875 20.226562 170.351562 20.417969 170.433594 20.546875 L 168.703125 20.546875 C 168.671875 20.449219 168.644531 20.351562 168.625 20.253906 C 168.605469 20.152344 168.59375 20.050781 168.585938 19.945312 C 168.3125 20.226562 167.992188 20.421875 167.625 20.535156 C 167.257812 20.648438 166.878906 20.703125 166.496094 20.703125 C 166.199219 20.703125 165.925781 20.667969 165.667969 20.59375 C 165.410156 20.523438 165.1875 20.410156 164.996094 20.257812 C 164.804688 20.105469 164.652344 19.914062 164.546875 19.683594 C 164.4375 19.449219 164.382812 19.175781 164.382812 18.855469 C 164.382812 18.503906 164.445312 18.210938 164.570312 17.984375 C 164.695312 17.757812 164.855469 17.574219 165.050781 17.4375 C 165.246094 17.300781 165.46875 17.199219 165.722656 17.132812 C 165.972656 17.066406 166.226562 17.011719 166.484375 16.972656 C 166.738281 16.929688 166.992188 16.898438 167.238281 16.875 C 167.488281 16.851562 167.707031 16.816406 167.898438 16.765625 C 168.089844 16.71875 168.242188 16.648438 168.355469 16.558594 C 168.46875 16.464844 168.519531 16.332031 168.511719 16.15625 C 168.511719 15.972656 168.480469 15.824219 168.421875 15.71875 C 168.363281 15.609375 168.28125 15.523438 168.183594 15.464844 C 168.082031 15.40625 167.964844 15.363281 167.835938 15.34375 C 167.703125 15.324219 167.558594 15.316406 167.40625 15.316406 C 167.070312 15.316406 166.808594 15.386719 166.617188 15.53125 C 166.425781 15.675781 166.3125 15.914062 166.28125 16.25 Z M 168.511719 17.511719 C 168.441406 17.574219 168.351562 17.625 168.242188 17.660156 C 168.132812 17.695312 168.019531 17.726562 167.894531 17.75 C 167.769531 17.773438 167.640625 17.792969 167.503906 17.8125 C 167.367188 17.828125 167.230469 17.847656 167.097656 17.871094 C 166.96875 17.894531 166.84375 17.925781 166.71875 17.96875 C 166.59375 18.007812 166.484375 18.0625 166.394531 18.128906 C 166.300781 18.195312 166.226562 18.28125 166.171875 18.386719 C 166.117188 18.492188 166.089844 18.621094 166.089844 18.78125 C 166.089844 18.933594 166.117188 19.0625 166.171875 19.167969 C 166.226562 19.269531 166.304688 19.351562 166.398438 19.414062 C 166.496094 19.472656 166.609375 19.515625 166.734375 19.539062 C 166.863281 19.5625 166.996094 19.574219 167.132812 19.574219 C 167.46875 19.574219 167.726562 19.519531 167.910156 19.40625 C 168.09375 19.292969 168.230469 19.160156 168.320312 19.003906 C 168.40625 18.847656 168.460938 18.691406 168.480469 18.53125 C 168.5 18.371094 168.511719 18.242188 168.511719 18.148438 Z M 171.648438 14.34375 L 171.648438 20.546875 L 173.351562 20.546875 L 173.351562 17.292969 C 173.351562 16.664062 173.457031 16.207031 173.664062 15.933594 C 173.871094 15.65625 174.207031 15.519531 174.671875 15.519531 C 175.078125 15.519531 175.363281 15.644531 175.523438 15.898438 C 175.683594 16.148438 175.765625 16.53125 175.765625 17.042969 L 175.765625 20.546875 L 177.46875 20.546875 L 177.46875 16.730469 C 177.46875 16.347656 177.433594 15.996094 177.367188 15.679688 C 177.296875 15.363281 177.179688 15.097656 177.011719 14.875 C 176.84375 14.65625 176.613281 14.484375 176.320312 14.359375 C 176.03125 14.238281 175.65625 14.175781 175.199219 14.175781 C 174.839844 14.175781 174.488281 14.257812 174.144531 14.421875 C 173.800781 14.585938 173.519531 14.847656 173.304688 15.207031 L 173.269531 15.207031 L 173.269531 14.34375 Z M 182.871094 16.527344 L 184.539062 16.527344 C 184.515625 16.128906 184.421875 15.78125 184.253906 15.488281 C 184.085938 15.195312 183.867188 14.953125 183.597656 14.757812 C 183.328125 14.5625 183.027344 14.414062 182.6875 14.320312 C 182.347656 14.222656 181.992188 14.175781 181.625 14.175781 C 181.121094 14.175781 180.671875 14.257812 180.28125 14.425781 C 179.886719 14.59375 179.554688 14.828125 179.285156 15.128906 C 179.011719 15.429688 178.804688 15.785156 178.664062 16.195312 C 178.523438 16.609375 178.457031 17.054688 178.457031 17.535156 C 178.457031 18 178.53125 18.425781 178.683594 18.8125 C 178.835938 19.199219 179.046875 19.535156 179.320312 19.816406 C 179.59375 20.09375 179.921875 20.3125 180.308594 20.46875 C 180.699219 20.625 181.125 20.703125 181.589844 20.703125 C 182.414062 20.703125 183.089844 20.488281 183.617188 20.054688 C 184.144531 19.621094 184.464844 18.996094 184.574219 18.171875 L 182.933594 18.171875 C 182.875 18.554688 182.738281 18.859375 182.519531 19.089844 C 182.296875 19.316406 181.984375 19.429688 181.574219 19.429688 C 181.3125 19.429688 181.089844 19.371094 180.902344 19.25 C 180.71875 19.128906 180.574219 18.976562 180.464844 18.789062 C 180.359375 18.601562 180.28125 18.390625 180.230469 18.160156 C 180.183594 17.925781 180.160156 17.699219 180.160156 17.476562 C 180.160156 17.242188 180.183594 17.007812 180.230469 16.773438 C 180.28125 16.535156 180.363281 16.320312 180.476562 16.125 C 180.59375 15.929688 180.742188 15.769531 180.929688 15.644531 C 181.113281 15.519531 181.339844 15.457031 181.613281 15.457031 C 182.339844 15.457031 182.761719 15.816406 182.871094 16.527344 Z M 187.398438 13.382812 L 187.398438 11.980469 L 185.695312 11.980469 L 185.695312 13.382812 Z M 185.695312 14.34375 L 185.695312 20.546875 L 187.398438 20.546875 L 187.398438 14.34375 Z M 188.648438 14.34375 L 188.648438 20.546875 L 190.351562 20.546875 L 190.351562 17.292969 C 190.351562 16.664062 190.457031 16.207031 190.664062 15.933594 C 190.871094 15.65625 191.207031 15.519531 191.671875 15.519531 C 192.078125 15.519531 192.363281 15.644531 192.523438 15.898438 C 192.683594 16.148438 192.765625 16.53125 192.765625 17.042969 L 192.765625 20.546875 L 194.46875 20.546875 L 194.46875 16.730469 C 194.46875 16.347656 194.433594 15.996094 194.367188 15.679688 C 194.296875 15.363281 194.179688 15.097656 194.011719 14.875 C 193.84375 14.65625 193.613281 14.484375 193.320312 14.359375 C 193.03125 14.238281 192.65625 14.175781 192.199219 14.175781 C 191.839844 14.175781 191.488281 14.257812 191.144531 14.421875 C 190.800781 14.585938 190.519531 14.847656 190.304688 15.207031 L 190.269531 15.207031 L 190.269531 14.34375 Z M 198.539062 19.082031 C 198.277344 19.082031 198.054688 19.027344 197.878906 18.914062 C 197.703125 18.800781 197.5625 18.660156 197.453125 18.484375 C 197.347656 18.308594 197.269531 18.109375 197.226562 17.890625 C 197.183594 17.667969 197.160156 17.445312 197.160156 17.222656 C 197.160156 16.992188 197.1875 16.769531 197.238281 16.558594 C 197.289062 16.34375 197.375 16.15625 197.488281 15.992188 C 197.605469 15.828125 197.75 15.699219 197.921875 15.601562 C 198.09375 15.507812 198.300781 15.457031 198.539062 15.457031 C 198.820312 15.457031 199.050781 15.511719 199.234375 15.613281 C 199.417969 15.71875 199.566406 15.859375 199.679688 16.035156 C 199.792969 16.210938 199.871094 16.414062 199.921875 16.640625 C 199.96875 16.867188 199.992188 17.109375 199.992188 17.367188 C 199.992188 17.589844 199.960938 17.804688 199.902344 18.007812 C 199.84375 18.210938 199.753906 18.394531 199.632812 18.554688 C 199.511719 18.714844 199.359375 18.84375 199.175781 18.9375 C 198.992188 19.035156 198.78125 19.082031 198.539062 19.082031 Z M 201.613281 20.152344 L 201.613281 14.34375 L 199.992188 14.34375 L 199.992188 15.171875 L 199.96875 15.171875 C 199.761719 14.8125 199.503906 14.554688 199.195312 14.402344 C 198.886719 14.25 198.527344 14.175781 198.121094 14.175781 C 197.6875 14.175781 197.304688 14.257812 196.972656 14.425781 C 196.640625 14.59375 196.363281 14.820312 196.140625 15.105469 C 195.917969 15.390625 195.746094 15.71875 195.628906 16.089844 C 195.511719 16.460938 195.457031 16.847656 195.457031 17.246094 C 195.457031 17.671875 195.507812 18.074219 195.605469 18.453125 C 195.707031 18.832031 195.863281 19.164062 196.078125 19.449219 C 196.296875 19.734375 196.570312 19.957031 196.90625 20.121094 C 197.242188 20.285156 197.644531 20.367188 198.109375 20.367188 C 198.484375 20.367188 198.84375 20.289062 199.183594 20.132812 C 199.523438 19.976562 199.785156 19.734375 199.96875 19.40625 L 199.992188 19.40625 L 199.992188 20.222656 C 200 20.664062 199.894531 21.027344 199.675781 21.316406 C 199.453125 21.601562 199.105469 21.746094 198.625 21.746094 C 198.320312 21.746094 198.050781 21.683594 197.820312 21.5625 C 197.589844 21.4375 197.433594 21.214844 197.351562 20.894531 L 195.660156 20.894531 C 195.683594 21.246094 195.78125 21.550781 195.953125 21.800781 C 196.125 22.054688 196.34375 22.257812 196.601562 22.417969 C 196.863281 22.578125 197.148438 22.695312 197.464844 22.773438 C 197.78125 22.847656 198.09375 22.886719 198.394531 22.886719 C 199.109375 22.886719 199.675781 22.789062 200.101562 22.597656 C 200.523438 22.40625 200.847656 22.171875 201.070312 21.898438 C 201.296875 21.621094 201.441406 21.324219 201.511719 21.003906 C 201.578125 20.683594 201.613281 20.398438 201.613281 20.152344 Z M 155 8.847656 "/>
<path style="fill-rule:nonzero;fill:rgb(12.54902%,36.862745%,44.313725%);fill-opacity:1;stroke-width:2;stroke-linecap:butt;stroke-linejoin:miter;stroke:rgb(100%,100%,100%);stroke-opacity:1;stroke-miterlimit:10;" d="M 212 10 L 252 10 L 252 22 L 212 22 Z M 212 10 "/>
<path style=" stroke:none;fill-rule:nonzero;fill:rgb(40%,40%,40%);fill-opacity:1;" d="M 260.710938 18.539062 L 260.710938 13.140625 L 262.054688 13.140625 C 262.519531 13.140625 262.910156 13.207031 263.226562 13.339844 C 263.542969 13.472656 263.796875 13.660156 263.988281 13.910156 C 264.179688 14.15625 264.316406 14.453125 264.402344 14.804688 C 264.484375 15.152344 264.527344 15.539062 264.527344 15.972656 C 264.527344 16.445312 264.46875 16.84375 264.347656 17.171875 C 264.226562 17.5 264.066406 17.765625 263.867188 17.972656 C 263.667969 18.175781 263.441406 18.320312 263.183594 18.410156 C 262.929688 18.496094 262.664062 18.539062 262.390625 18.539062 Z M 258.828125 11.558594 L 258.828125 20.125 L 262.523438 20.125 C 263.179688 20.125 263.75 20.015625 264.234375 19.796875 C 264.71875 19.574219 265.121094 19.273438 265.445312 18.890625 C 265.769531 18.503906 266.011719 18.050781 266.171875 17.519531 C 266.332031 16.992188 266.410156 16.417969 266.410156 15.792969 C 266.410156 15.082031 266.3125 14.460938 266.117188 13.933594 C 265.921875 13.40625 265.648438 12.964844 265.300781 12.613281 C 264.953125 12.261719 264.542969 11.996094 264.066406 11.820312 C 263.589844 11.644531 263.074219 11.558594 262.523438 11.558594 Z M 269.398438 12.960938 L 269.398438 11.558594 L 267.695312 11.558594 L 267.695312 12.960938 Z M 267.695312 13.921875 L 267.695312 20.125 L 269.398438 20.125 L 269.398438 13.921875 Z M 270.648438 13.921875 L 270.648438 20.125 L 272.351562 20.125 L 272.351562 16.871094 C 272.351562 16.242188 272.457031 15.785156 272.664062 15.511719 C 272.871094 15.234375 273.207031 15.097656 273.671875 15.097656 C 274.078125 15.097656 274.363281 15.222656 274.523438 15.476562 C 274.683594 15.726562 274.765625 16.109375 274.765625 16.621094 L 274.765625 20.125 L 276.46875 20.125 L 276.46875 16.308594 C 276.46875 15.925781 276.433594 15.574219 276.367188 15.257812 C 276.296875 14.941406 276.179688 14.675781 276.011719 14.453125 C 275.84375 14.234375 275.613281 14.0625 275.320312 13.9375 C 275.03125 13.816406 274.65625 13.753906 274.199219 13.753906 C 273.839844 13.753906 273.488281 13.835938 273.144531 14 C 272.800781 14.164062 272.519531 14.425781 272.304688 14.785156 L 272.269531 14.785156 L 272.269531 13.921875 Z M 277.648438 13.921875 L 277.648438 20.125 L 279.351562 20.125 L 279.351562 16.871094 C 279.351562 16.242188 279.457031 15.785156 279.664062 15.511719 C 279.871094 15.234375 280.207031 15.097656 280.671875 15.097656 C 281.078125 15.097656 281.363281 15.222656 281.523438 15.476562 C 281.683594 15.726562 281.765625 16.109375 281.765625 16.621094 L 281.765625 20.125 L 283.46875 20.125 L 283.46875 16.308594 C 283.46875 15.925781 283.433594 15.574219 283.367188 15.257812 C 283.296875 14.941406 283.179688 14.675781 283.011719 14.453125 C 282.84375 14.234375 282.613281 14.0625 282.320312 13.9375 C 282.03125 13.816406 281.65625 13.753906 281.199219 13.753906 C 280.839844 13.753906 280.488281 13.835938 280.144531 14 C 279.800781 14.164062 279.519531 14.425781 279.304688 14.785156 L 279.269531 14.785156 L 279.269531 13.921875 Z M 288.824219 16.355469 L 286.050781 16.355469 C 286.058594 16.238281 286.085938 16.101562 286.128906 15.949219 C 286.171875 15.796875 286.25 15.652344 286.359375 15.515625 C 286.464844 15.378906 286.609375 15.265625 286.789062 15.175781 C 286.96875 15.082031 287.195312 15.035156 287.46875 15.035156 C 287.882812 15.035156 288.195312 15.148438 288.398438 15.371094 C 288.601562 15.597656 288.742188 15.925781 288.824219 16.355469 Z M 286.050781 17.4375 L 290.527344 17.4375 C 290.558594 16.957031 290.519531 16.496094 290.40625 16.058594 C 290.296875 15.617188 290.113281 15.226562 289.863281 14.882812 C 289.609375 14.539062 289.289062 14.261719 288.894531 14.058594 C 288.503906 13.855469 288.042969 13.753906 287.515625 13.753906 C 287.042969 13.753906 286.613281 13.835938 286.226562 14.003906 C 285.839844 14.171875 285.503906 14.402344 285.222656 14.695312 C 284.945312 14.988281 284.726562 15.332031 284.574219 15.734375 C 284.421875 16.132812 284.347656 16.566406 284.347656 17.027344 C 284.347656 17.507812 284.421875 17.949219 284.570312 18.347656 C 284.71875 18.75 284.929688 19.09375 285.199219 19.382812 C 285.472656 19.667969 285.804688 19.890625 286.195312 20.046875 C 286.585938 20.203125 287.027344 20.28125 287.515625 20.28125 C 288.21875 20.28125 288.820312 20.121094 289.316406 19.800781 C 289.8125 19.480469 290.179688 18.949219 290.421875 18.203125 L 288.921875 18.203125 C 288.863281 18.394531 288.710938 18.578125 288.464844 18.75 C 288.214844 18.921875 287.921875 19.007812 287.574219 19.007812 C 287.09375 19.007812 286.726562 18.886719 286.472656 18.636719 C 286.214844 18.390625 286.074219 17.988281 286.050781 17.4375 Z M 291.648438 13.921875 L 291.648438 20.125 L 293.351562 20.125 L 293.351562 17.328125 C 293.351562 17.046875 293.378906 16.789062 293.4375 16.550781 C 293.492188 16.308594 293.585938 16.097656 293.71875 15.917969 C 293.851562 15.738281 294.023438 15.597656 294.238281 15.492188 C 294.457031 15.390625 294.71875 15.335938 295.03125 15.335938 C 295.136719 15.335938 295.242188 15.34375 295.355469 15.355469 C 295.46875 15.367188 295.5625 15.382812 295.644531 15.398438 L 295.644531 13.8125 C 295.507812 13.773438 295.382812 13.753906 295.273438 13.753906 C 295.054688 13.753906 294.847656 13.785156 294.648438 13.847656 C 294.449219 13.914062 294.261719 14.003906 294.085938 14.117188 C 293.910156 14.234375 293.753906 14.375 293.617188 14.539062 C 293.480469 14.703125 293.371094 14.882812 293.292969 15.074219 L 293.269531 15.074219 L 293.269531 13.921875 Z M 306.738281 20.125 L 308.695312 13.921875 L 306.945312 13.921875 L 305.804688 18.121094 L 305.78125 18.121094 L 304.722656 13.921875 L 303.066406 13.921875 L 302.035156 18.132812 L 302.011719 18.132812 L 300.871094 13.921875 L 299.070312 13.921875 L 301.039062 20.125 L 302.804688 20.125 L 303.859375 15.960938 L 303.882812 15.960938 L 304.988281 20.125 Z M 311.398438 12.960938 L 311.398438 11.558594 L 309.695312 11.558594 L 309.695312 12.960938 Z M 309.695312 13.921875 L 309.695312 20.125 L 311.398438 20.125 L 311.398438 13.921875 Z M 314.808594 13.921875 L 314.808594 12.0625 L 313.105469 12.0625 L 313.105469 13.921875 L 312.070312 13.921875 L 312.070312 15.0625 L 313.105469 15.0625 L 313.105469 18.722656 C 313.105469 19.035156 313.15625 19.285156 313.261719 19.476562 C 313.363281 19.667969 313.507812 19.816406 313.6875 19.921875 C 313.867188 20.023438 314.074219 20.09375 314.308594 20.132812 C 314.546875 20.167969 314.796875 20.183594 315.058594 20.183594 C 315.226562 20.183594 315.398438 20.179688 315.574219 20.171875 C 315.75 20.164062 315.910156 20.148438 316.054688 20.125 L 316.054688 18.804688 C 315.976562 18.820312 315.890625 18.832031 315.804688 18.839844 C 315.714844 18.847656 315.625 18.851562 315.527344 18.851562 C 315.238281 18.851562 315.046875 18.804688 314.953125 18.710938 C 314.855469 18.613281 314.808594 18.421875 314.808594 18.132812 L 314.808594 15.0625 L 316.054688 15.0625 L 316.054688 13.921875 Z M 316.648438 11.558594 L 316.648438 20.125 L 318.351562 20.125 L 318.351562 16.871094 C 318.351562 16.242188 318.457031 15.785156 318.664062 15.511719 C 318.871094 15.234375 319.207031 15.097656 319.671875 15.097656 C 320.078125 15.097656 320.363281 15.222656 320.523438 15.476562 C 320.683594 15.726562 320.765625 16.109375 320.765625 16.621094 L 320.765625 20.125 L 322.46875 20.125 L 322.46875 16.308594 C 322.46875 15.925781 322.433594 15.574219 322.367188 15.257812 C 322.296875 14.941406 322.179688 14.675781 322.011719 14.453125 C 321.84375 14.234375 321.613281 14.0625 321.320312 13.9375 C 321.03125 13.816406 320.65625 13.753906 320.199219 13.753906 C 319.878906 13.753906 319.550781 13.835938 319.214844 14 C 318.878906 14.164062 318.605469 14.425781 318.386719 14.785156 L 318.351562 14.785156 L 318.351562 11.558594 Z M 327.019531 15.0625 L 327.019531 20.125 L 328.722656 20.125 L 328.722656 15.0625 L 329.898438 15.0625 L 329.898438 13.921875 L 328.722656 13.921875 L 328.722656 13.550781 C 328.722656 13.292969 328.773438 13.109375 328.875 13.003906 C 328.972656 12.894531 329.140625 12.839844 329.371094 12.839844 C 329.585938 12.839844 329.796875 12.851562 329.996094 12.878906 L 329.996094 11.605469 C 329.851562 11.597656 329.703125 11.585938 329.550781 11.574219 C 329.398438 11.5625 329.246094 11.558594 329.097656 11.558594 C 328.402344 11.558594 327.878906 11.734375 327.535156 12.085938 C 327.191406 12.4375 327.019531 12.890625 327.019531 13.441406 L 327.019531 13.921875 L 326 13.921875 L 326 15.0625 Z M 330.648438 13.921875 L 330.648438 20.125 L 332.351562 20.125 L 332.351562 17.328125 C 332.351562 17.046875 332.378906 16.789062 332.4375 16.550781 C 332.492188 16.308594 332.585938 16.097656 332.71875 15.917969 C 332.851562 15.738281 333.023438 15.597656 333.238281 15.492188 C 333.457031 15.390625 333.71875 15.335938 334.03125 15.335938 C 334.136719 15.335938 334.242188 15.34375 334.355469 15.355469 C 334.46875 15.367188 334.5625 15.382812 334.644531 15.398438 L 334.644531 13.8125 C 334.507812 13.773438 334.382812 13.753906 334.273438 13.753906 C 334.054688 13.753906 333.847656 13.785156 333.648438 13.847656 C 333.449219 13.914062 333.261719 14.003906 333.085938 14.117188 C 332.910156 14.234375 332.753906 14.375 332.617188 14.539062 C 332.480469 14.703125 332.371094 14.882812 332.292969 15.074219 L 332.269531 15.074219 L 332.269531 13.921875 Z M 337.398438 12.960938 L 337.398438 11.558594 L 335.695312 11.558594 L 335.695312 12.960938 Z M 335.695312 13.921875 L 335.695312 20.125 L 337.398438 20.125 L 337.398438 13.921875 Z M 342.824219 16.355469 L 340.050781 16.355469 C 340.058594 16.238281 340.085938 16.101562 340.128906 15.949219 C 340.171875 15.796875 340.25 15.652344 340.359375 15.515625 C 340.464844 15.378906 340.609375 15.265625 340.789062 15.175781 C 340.96875 15.082031 341.195312 15.035156 341.46875 15.035156 C 341.882812 15.035156 342.195312 15.148438 342.398438 15.371094 C 342.601562 15.597656 342.742188 15.925781 342.824219 16.355469 Z M 340.050781 17.4375 L 344.527344 17.4375 C 344.558594 16.957031 344.519531 16.496094 344.40625 16.058594 C 344.296875 15.617188 344.113281 15.226562 343.863281 14.882812 C 343.609375 14.539062 343.289062 14.261719 342.894531 14.058594 C 342.503906 13.855469 342.042969 13.753906 341.515625 13.753906 C 341.042969 13.753906 340.613281 13.835938 340.226562 14.003906 C 339.839844 14.171875 339.503906 14.402344 339.222656 14.695312 C 338.945312 14.988281 338.726562 15.332031 338.574219 15.734375 C 338.421875 16.132812 338.347656 16.566406 338.347656 17.027344 C 338.347656 17.507812 338.421875 17.949219 338.570312 18.347656 C 338.71875 18.75 338.929688 19.09375 339.199219 19.382812 C 339.472656 19.667969 339.804688 19.890625 340.195312 20.046875 C 340.585938 20.203125 341.027344 20.28125 341.515625 20.28125 C 342.21875 20.28125 342.820312 20.121094 343.316406 19.800781 C 343.8125 19.480469 344.179688 18.949219 344.421875 18.203125 L 342.921875 18.203125 C 342.863281 18.394531 342.710938 18.578125 342.464844 18.75 C 342.214844 18.921875 341.921875 19.007812 341.574219 19.007812 C 341.09375 19.007812 340.726562 18.886719 340.472656 18.636719 C 340.214844 18.390625 340.074219 17.988281 340.050781 17.4375 Z M 345.648438 13.921875 L 345.648438 20.125 L 347.351562 20.125 L 347.351562 16.871094 C 347.351562 16.242188 347.457031 15.785156 347.664062 15.511719 C 347.871094 15.234375 348.207031 15.097656 348.671875 15.097656 C 349.078125 15.097656 349.363281 15.222656 349.523438 15.476562 C 349.683594 15.726562 349.765625 16.109375 349.765625 16.621094 L 349.765625 20.125 L 351.46875 20.125 L 351.46875 16.308594 C 351.46875 15.925781 351.433594 15.574219 351.367188 15.257812 C 351.296875 14.941406 351.179688 14.675781 351.011719 14.453125 C 350.84375 14.234375 350.613281 14.0625 350.320312 13.9375 C 350.03125 13.816406 349.65625 13.753906 349.199219 13.753906 C 348.839844 13.753906 348.488281 13.835938 348.144531 14 C 347.800781 14.164062 347.519531 14.425781 347.304688 14.785156 L 347.269531 14.785156 L 347.269531 13.921875 Z M 357.050781 17.003906 C 357.050781 17.261719 357.027344 17.507812 356.980469 17.75 C 356.933594 17.988281 356.851562 18.203125 356.738281 18.390625 C 356.628906 18.578125 356.476562 18.730469 356.289062 18.839844 C 356.101562 18.953125 355.867188 19.007812 355.589844 19.007812 C 355.324219 19.007812 355.097656 18.949219 354.910156 18.835938 C 354.722656 18.71875 354.566406 18.566406 354.441406 18.378906 C 354.316406 18.191406 354.226562 17.976562 354.171875 17.738281 C 354.117188 17.496094 354.089844 17.257812 354.089844 17.015625 C 354.089844 16.761719 354.113281 16.515625 354.164062 16.277344 C 354.21875 16.042969 354.300781 15.832031 354.417969 15.648438 C 354.535156 15.464844 354.6875 15.316406 354.878906 15.203125 C 355.070312 15.09375 355.308594 15.035156 355.589844 15.035156 C 355.867188 15.035156 356.101562 15.09375 356.285156 15.203125 C 356.46875 15.316406 356.617188 15.464844 356.734375 15.644531 C 356.851562 15.824219 356.933594 16.03125 356.980469 16.265625 C 357.027344 16.503906 357.050781 16.75 357.050781 17.003906 Z M 357.074219 19.332031 L 357.074219 20.125 L 358.695312 20.125 L 358.695312 11.558594 L 356.992188 11.558594 L 356.992188 14.675781 L 356.96875 14.675781 C 356.777344 14.371094 356.515625 14.144531 356.183594 13.988281 C 355.851562 13.832031 355.5 13.753906 355.132812 13.753906 C 354.675781 13.753906 354.277344 13.84375 353.933594 14.023438 C 353.589844 14.203125 353.300781 14.441406 353.074219 14.738281 C 352.847656 15.035156 352.675781 15.375 352.558594 15.761719 C 352.441406 16.152344 352.382812 16.554688 352.382812 16.96875 C 352.382812 17.402344 352.441406 17.816406 352.558594 18.21875 C 352.675781 18.617188 352.847656 18.972656 353.074219 19.277344 C 353.300781 19.585938 353.59375 19.832031 353.945312 20.011719 C 354.296875 20.191406 354.703125 20.28125 355.167969 20.28125 C 355.574219 20.28125 355.941406 20.207031 356.265625 20.058594 C 356.589844 19.910156 356.851562 19.667969 357.050781 19.332031 Z M 360.96875 18.109375 L 359.347656 18.109375 C 359.363281 18.523438 359.457031 18.871094 359.628906 19.148438 C 359.800781 19.421875 360.023438 19.644531 360.289062 19.8125 C 360.558594 19.980469 360.863281 20.101562 361.207031 20.171875 C 361.550781 20.246094 361.902344 20.28125 362.265625 20.28125 C 362.617188 20.28125 362.960938 20.246094 363.300781 20.179688 C 363.640625 20.109375 363.945312 19.992188 364.207031 19.824219 C 364.472656 19.65625 364.6875 19.433594 364.851562 19.160156 C 365.015625 18.882812 365.097656 18.539062 365.097656 18.132812 C 365.097656 17.84375 365.039062 17.601562 364.929688 17.40625 C 364.816406 17.210938 364.667969 17.046875 364.484375 16.914062 C 364.300781 16.78125 364.089844 16.675781 363.855469 16.597656 C 363.617188 16.515625 363.375 16.449219 363.128906 16.394531 C 362.886719 16.335938 362.652344 16.285156 362.421875 16.238281 C 362.1875 16.1875 361.980469 16.136719 361.800781 16.074219 C 361.621094 16.015625 361.476562 15.9375 361.363281 15.839844 C 361.25 15.746094 361.195312 15.621094 361.195312 15.46875 C 361.195312 15.339844 361.226562 15.238281 361.292969 15.164062 C 361.355469 15.085938 361.433594 15.027344 361.527344 14.988281 C 361.617188 14.949219 361.71875 14.921875 361.832031 14.910156 C 361.945312 14.898438 362.046875 14.894531 362.144531 14.894531 C 362.449219 14.894531 362.710938 14.949219 362.9375 15.066406 C 363.160156 15.183594 363.285156 15.40625 363.308594 15.734375 L 364.929688 15.734375 C 364.898438 15.347656 364.796875 15.03125 364.632812 14.777344 C 364.46875 14.527344 364.265625 14.324219 364.015625 14.171875 C 363.769531 14.019531 363.484375 13.914062 363.171875 13.847656 C 362.855469 13.785156 362.527344 13.753906 362.191406 13.753906 C 361.855469 13.753906 361.527344 13.78125 361.207031 13.84375 C 360.886719 13.902344 360.601562 14.007812 360.34375 14.15625 C 360.089844 14.304688 359.882812 14.503906 359.726562 14.761719 C 359.570312 15.015625 359.492188 15.34375 359.492188 15.746094 C 359.492188 16.015625 359.546875 16.246094 359.660156 16.433594 C 359.773438 16.621094 359.921875 16.777344 360.105469 16.902344 C 360.289062 17.027344 360.496094 17.128906 360.734375 17.203125 C 360.96875 17.277344 361.210938 17.34375 361.460938 17.402344 C 362.066406 17.53125 362.542969 17.65625 362.882812 17.785156 C 363.222656 17.914062 363.390625 18.105469 363.390625 18.359375 C 363.390625 18.511719 363.355469 18.640625 363.285156 18.738281 C 363.210938 18.839844 363.121094 18.917969 363.015625 18.980469 C 362.90625 19.039062 362.785156 19.082031 362.652344 19.109375 C 362.519531 19.136719 362.394531 19.152344 362.277344 19.152344 C 362.109375 19.152344 361.945312 19.132812 361.789062 19.09375 C 361.632812 19.054688 361.496094 18.992188 361.375 18.90625 C 361.253906 18.824219 361.15625 18.714844 361.082031 18.582031 C 361.007812 18.449219 360.96875 18.292969 360.96875 18.109375 Z M 258 8.125 "/>
<path style="fill-rule:nonzero;fill:rgb(39.215686%,90.980392%,23.529412%);fill-opacity:1;stroke-width:2;stroke-linecap:butt;stroke-linejoin:miter;stroke:rgb(100%,100%,100%);stroke-opacity:1;stroke-miterlimit:10;" d="M 112.5 32 L 152.5 32 L 152.5 44 L 112.5 44 Z M 112.5 32 "/>
<path style=" stroke:none;fill-rule:nonzero;fill:rgb(40%,40%,40%);fill-opacity:1;" d="M 159.328125 33.558594 L 159.328125 42.125 L 161.09375 42.125 L 161.09375 36.113281 L 161.117188 36.113281 L 163.214844 42.125 L 164.667969 42.125 L 166.769531 36.054688 L 166.792969 36.054688 L 166.792969 42.125 L 168.554688 42.125 L 168.554688 33.558594 L 165.902344 33.558594 L 164.007812 39.449219 L 163.984375 39.449219 L 161.980469 33.558594 Z M 170.074219 37.828125 C 170.097656 37.429688 170.199219 37.097656 170.375 36.832031 C 170.550781 36.570312 170.777344 36.355469 171.046875 36.195312 C 171.320312 36.035156 171.625 35.921875 171.964844 35.855469 C 172.304688 35.789062 172.648438 35.753906 172.992188 35.753906 C 173.304688 35.753906 173.621094 35.773438 173.941406 35.820312 C 174.261719 35.863281 174.550781 35.949219 174.816406 36.078125 C 175.082031 36.207031 175.296875 36.382812 175.464844 36.609375 C 175.632812 36.839844 175.714844 37.140625 175.714844 37.515625 L 175.714844 40.746094 C 175.714844 41.023438 175.730469 41.292969 175.765625 41.550781 C 175.796875 41.804688 175.851562 41.996094 175.933594 42.125 L 174.203125 42.125 C 174.171875 42.027344 174.144531 41.929688 174.125 41.832031 C 174.105469 41.730469 174.09375 41.628906 174.085938 41.523438 C 173.8125 41.804688 173.492188 42 173.125 42.113281 C 172.757812 42.226562 172.378906 42.28125 171.996094 42.28125 C 171.699219 42.28125 171.425781 42.246094 171.167969 42.171875 C 170.910156 42.101562 170.6875 41.988281 170.496094 41.835938 C 170.304688 41.683594 170.152344 41.492188 170.046875 41.261719 C 169.9375 41.027344 169.882812 40.753906 169.882812 40.433594 C 169.882812 40.082031 169.945312 39.789062 170.070312 39.5625 C 170.195312 39.335938 170.355469 39.152344 170.550781 39.015625 C 170.746094 38.878906 170.96875 38.777344 171.222656 38.710938 C 171.472656 38.644531 171.726562 38.589844 171.984375 38.550781 C 172.238281 38.507812 172.492188 38.476562 172.738281 38.453125 C 172.988281 38.429688 173.207031 38.394531 173.398438 38.34375 C 173.589844 38.296875 173.742188 38.226562 173.855469 38.136719 C 173.96875 38.042969 174.019531 37.910156 174.011719 37.734375 C 174.011719 37.550781 173.980469 37.402344 173.921875 37.296875 C 173.863281 37.1875 173.78125 37.101562 173.683594 37.042969 C 173.582031 36.984375 173.464844 36.941406 173.335938 36.921875 C 173.203125 36.902344 173.058594 36.894531 172.90625 36.894531 C 172.570312 36.894531 172.308594 36.964844 172.117188 37.109375 C 171.925781 37.253906 171.8125 37.492188 171.78125 37.828125 Z M 174.011719 39.089844 C 173.941406 39.152344 173.851562 39.203125 173.742188 39.238281 C 173.632812 39.273438 173.519531 39.304688 173.394531 39.328125 C 173.269531 39.351562 173.140625 39.371094 173.003906 39.390625 C 172.867188 39.40625 172.730469 39.425781 172.597656 39.449219 C 172.46875 39.472656 172.34375 39.503906 172.21875 39.546875 C 172.09375 39.585938 171.984375 39.640625 171.894531 39.707031 C 171.800781 39.773438 171.726562 39.859375 171.671875 39.964844 C 171.617188 40.070312 171.589844 40.199219 171.589844 40.359375 C 171.589844 40.511719 171.617188 40.640625 171.671875 40.746094 C 171.726562 40.847656 171.804688 40.929688 171.898438 40.992188 C 171.996094 41.050781 172.109375 41.09375 172.234375 41.117188 C 172.363281 41.140625 172.496094 41.152344 172.632812 41.152344 C 172.96875 41.152344 173.226562 41.097656 173.410156 40.984375 C 173.59375 40.871094 173.730469 40.738281 173.820312 40.582031 C 173.90625 40.425781 173.960938 40.269531 173.980469 40.109375 C 174 39.949219 174.011719 39.820312 174.011719 39.726562 Z M 177.304688 33.558594 L 177.304688 42.125 L 179.007812 42.125 L 179.007812 39.988281 L 179.667969 39.351562 L 181.371094 42.125 L 183.4375 42.125 L 180.832031 38.199219 L 183.171875 35.921875 L 181.15625 35.921875 L 179.007812 38.152344 L 179.007812 33.558594 Z M 185.898438 34.960938 L 185.898438 33.558594 L 184.195312 33.558594 L 184.195312 34.960938 Z M 184.195312 35.921875 L 184.195312 42.125 L 185.898438 42.125 L 185.898438 35.921875 Z M 187.148438 35.921875 L 187.148438 42.125 L 188.851562 42.125 L 188.851562 38.871094 C 188.851562 38.242188 188.957031 37.785156 189.164062 37.511719 C 189.371094 37.234375 189.707031 37.097656 190.171875 37.097656 C 190.578125 37.097656 190.863281 37.222656 191.023438 37.476562 C 191.183594 37.726562 191.265625 38.109375 191.265625 38.621094 L 191.265625 42.125 L 192.96875 42.125 L 192.96875 38.308594 C 192.96875 37.925781 192.933594 37.574219 192.867188 37.257812 C 192.796875 36.941406 192.679688 36.675781 192.511719 36.453125 C 192.34375 36.234375 192.113281 36.0625 191.820312 35.9375 C 191.53125 35.816406 191.15625 35.753906 190.699219 35.753906 C 190.339844 35.753906 189.988281 35.835938 189.644531 36 C 189.300781 36.164062 189.019531 36.425781 188.804688 36.785156 L 188.769531 36.785156 L 188.769531 35.921875 Z M 197.039062 40.660156 C 196.777344 40.660156 196.554688 40.605469 196.378906 40.492188 C 196.203125 40.378906 196.0625 40.238281 195.953125 40.0625 C 195.847656 39.886719 195.769531 39.6875 195.726562 39.46875 C 195.683594 39.246094 195.660156 39.023438 195.660156 38.800781 C 195.660156 38.570312 195.6875 38.347656 195.738281 38.136719 C 195.789062 37.921875 195.875 37.734375 195.988281 37.570312 C 196.105469 37.40625 196.25 37.277344 196.421875 37.179688 C 196.59375 37.085938 196.800781 37.035156 197.039062 37.035156 C 197.320312 37.035156 197.550781 37.089844 197.734375 37.191406 C 197.917969 37.296875 198.066406 37.4375 198.179688 37.613281 C 198.292969 37.789062 198.371094 37.992188 198.421875 38.21875 C 198.46875 38.445312 198.492188 38.6875 198.492188 38.945312 C 198.492188 39.167969 198.460938 39.382812 198.402344 39.585938 C 198.34375 39.789062 198.253906 39.972656 198.132812 40.132812 C 198.011719 40.292969 197.859375 40.421875 197.675781 40.515625 C 197.492188 40.613281 197.28125 40.660156 197.039062 40.660156 Z M 200.113281 41.730469 L 200.113281 35.921875 L 198.492188 35.921875 L 198.492188 36.75 L 198.46875 36.75 C 198.261719 36.390625 198.003906 36.132812 197.695312 35.980469 C 197.386719 35.828125 197.027344 35.753906 196.621094 35.753906 C 196.1875 35.753906 195.804688 35.835938 195.472656 36.003906 C 195.140625 36.171875 194.863281 36.398438 194.640625 36.683594 C 194.417969 36.96875 194.246094 37.296875 194.128906 37.667969 C 194.011719 38.039062 193.957031 38.425781 193.957031 38.824219 C 193.957031 39.25 194.007812 39.652344 194.105469 40.03125 C 194.207031 40.410156 194.363281 40.742188 194.578125 41.027344 C 194.796875 41.3125 195.070312 41.535156 195.40625 41.699219 C 195.742188 41.863281 196.144531 41.945312 196.609375 41.945312 C 196.984375 41.945312 197.34375 41.867188 197.683594 41.710938 C 198.023438 41.554688 198.285156 41.3125 198.46875 40.984375 L 198.492188 40.984375 L 198.492188 41.800781 C 198.5 42.242188 198.394531 42.605469 198.175781 42.894531 C 197.953125 43.179688 197.605469 43.324219 197.125 43.324219 C 196.820312 43.324219 196.550781 43.261719 196.320312 43.140625 C 196.089844 43.015625 195.933594 42.792969 195.851562 42.472656 L 194.160156 42.472656 C 194.183594 42.824219 194.28125 43.128906 194.453125 43.378906 C 194.625 43.632812 194.84375 43.835938 195.101562 43.996094 C 195.363281 44.15625 195.648438 44.273438 195.964844 44.351562 C 196.28125 44.425781 196.59375 44.464844 196.894531 44.464844 C 197.609375 44.464844 198.175781 44.367188 198.601562 44.175781 C 199.023438 43.984375 199.347656 43.75 199.570312 43.476562 C 199.796875 43.199219 199.941406 42.902344 200.011719 42.582031 C 200.078125 42.261719 200.113281 41.976562 200.113281 41.730469 Z M 204.519531 37.0625 L 204.519531 42.125 L 206.222656 42.125 L 206.222656 37.0625 L 207.398438 37.0625 L 207.398438 35.921875 L 206.222656 35.921875 L 206.222656 35.550781 C 206.222656 35.292969 206.273438 35.109375 206.375 35.003906 C 206.472656 34.894531 206.640625 34.839844 206.871094 34.839844 C 207.085938 34.839844 207.296875 34.851562 207.496094 34.878906 L 207.496094 33.605469 C 207.351562 33.597656 207.203125 33.585938 207.050781 33.574219 C 206.898438 33.5625 206.746094 33.558594 206.597656 33.558594 C 205.902344 33.558594 205.378906 33.734375 205.035156 34.085938 C 204.691406 34.4375 204.519531 34.890625 204.519531 35.441406 L 204.519531 35.921875 L 203.5 35.921875 L 203.5 37.0625 Z M 208.074219 37.828125 C 208.097656 37.429688 208.199219 37.097656 208.375 36.832031 C 208.550781 36.570312 208.777344 36.355469 209.046875 36.195312 C 209.320312 36.035156 209.625 35.921875 209.964844 35.855469 C 210.304688 35.789062 210.648438 35.753906 210.992188 35.753906 C 211.304688 35.753906 211.621094 35.773438 211.941406 35.820312 C 212.261719 35.863281 212.550781 35.949219 212.816406 36.078125 C 213.082031 36.207031 213.296875 36.382812 213.464844 36.609375 C 213.632812 36.839844 213.714844 37.140625 213.714844 37.515625 L 213.714844 40.746094 C 213.714844 41.023438 213.730469 41.292969 213.765625 41.550781 C 213.796875 41.804688 213.851562 41.996094 213.933594 42.125 L 212.203125 42.125 C 212.171875 42.027344 212.144531 41.929688 212.125 41.832031 C 212.105469 41.730469 212.09375 41.628906 212.085938 41.523438 C 211.8125 41.804688 211.492188 42 211.125 42.113281 C 210.757812 42.226562 210.378906 42.28125 209.996094 42.28125 C 209.699219 42.28125 209.425781 42.246094 209.167969 42.171875 C 208.910156 42.101562 208.6875 41.988281 208.496094 41.835938 C 208.304688 41.683594 208.152344 41.492188 208.046875 41.261719 C 207.9375 41.027344 207.882812 40.753906 207.882812 40.433594 C 207.882812 40.082031 207.945312 39.789062 208.070312 39.5625 C 208.195312 39.335938 208.355469 39.152344 208.550781 39.015625 C 208.746094 38.878906 208.96875 38.777344 209.222656 38.710938 C 209.472656 38.644531 209.726562 38.589844 209.984375 38.550781 C 210.238281 38.507812 210.492188 38.476562 210.738281 38.453125 C 210.988281 38.429688 211.207031 38.394531 211.398438 38.34375 C 211.589844 38.296875 211.742188 38.226562 211.855469 38.136719 C 211.96875 38.042969 212.019531 37.910156 212.011719 37.734375 C 212.011719 37.550781 211.980469 37.402344 211.921875 37.296875 C 211.863281 37.1875 211.78125 37.101562 211.683594 37.042969 C 211.582031 36.984375 211.464844 36.941406 211.335938 36.921875 C 211.203125 36.902344 211.058594 36.894531 210.90625 36.894531 C 210.570312 36.894531 210.308594 36.964844 210.117188 37.109375 C 209.925781 37.253906 209.8125 37.492188 209.78125 37.828125 Z M 212.011719 39.089844 C 211.941406 39.152344 211.851562 39.203125 211.742188 39.238281 C 211.632812 39.273438 211.519531 39.304688 211.394531 39.328125 C 211.269531 39.351562 211.140625 39.371094 211.003906 39.390625 C 210.867188 39.40625 210.730469 39.425781 210.597656 39.449219 C 210.46875 39.472656 210.34375 39.503906 210.21875 39.546875 C 210.09375 39.585938 209.984375 39.640625 209.894531 39.707031 C 209.800781 39.773438 209.726562 39.859375 209.671875 39.964844 C 209.617188 40.070312 209.589844 40.199219 209.589844 40.359375 C 209.589844 40.511719 209.617188 40.640625 209.671875 40.746094 C 209.726562 40.847656 209.804688 40.929688 209.898438 40.992188 C 209.996094 41.050781 210.109375 41.09375 210.234375 41.117188 C 210.363281 41.140625 210.496094 41.152344 210.632812 41.152344 C 210.96875 41.152344 211.226562 41.097656 211.410156 40.984375 C 211.59375 40.871094 211.730469 40.738281 211.820312 40.582031 C 211.90625 40.425781 211.960938 40.269531 211.980469 40.109375 C 212 39.949219 212.011719 39.820312 212.011719 39.726562 Z M 215.148438 35.921875 L 215.148438 42.125 L 216.851562 42.125 L 216.851562 38.871094 C 216.851562 38.242188 216.957031 37.785156 217.164062 37.511719 C 217.371094 37.234375 217.707031 37.097656 218.171875 37.097656 C 218.578125 37.097656 218.863281 37.222656 219.023438 37.476562 C 219.183594 37.726562 219.265625 38.109375 219.265625 38.621094 L 219.265625 42.125 L 220.96875 42.125 L 220.96875 38.308594 C 220.96875 37.925781 220.933594 37.574219 220.867188 37.257812 C 220.796875 36.941406 220.679688 36.675781 220.511719 36.453125 C 220.34375 36.234375 220.113281 36.0625 219.820312 35.9375 C 219.53125 35.816406 219.15625 35.753906 218.699219 35.753906 C 218.339844 35.753906 217.988281 35.835938 217.644531 36 C 217.300781 36.164062 217.019531 36.425781 216.804688 36.785156 L 216.769531 36.785156 L 216.769531 35.921875 Z M 226.371094 38.105469 L 228.039062 38.105469 C 228.015625 37.707031 227.921875 37.359375 227.753906 37.066406 C 227.585938 36.773438 227.367188 36.53125 227.097656 36.335938 C 226.828125 36.140625 226.527344 35.992188 226.1875 35.898438 C 225.847656 35.800781 225.492188 35.753906 225.125 35.753906 C 224.621094 35.753906 224.171875 35.835938 223.78125 36.003906 C 223.386719 36.171875 223.054688 36.40625 222.785156 36.707031 C 222.511719 37.007812 222.304688 37.363281 222.164062 37.773438 C 222.023438 38.1875 221.957031 38.632812 221.957031 39.113281 C 221.957031 39.578125 222.03125 40.003906 222.183594 40.390625 C 222.335938 40.777344 222.546875 41.113281 222.820312 41.394531 C 223.09375 41.671875 223.421875 41.890625 223.808594 42.046875 C 224.199219 42.203125 224.625 42.28125 225.089844 42.28125 C 225.914062 42.28125 226.589844 42.066406 227.117188 41.632812 C 227.644531 41.199219 227.964844 40.574219 228.074219 39.75 L 226.433594 39.75 C 226.375 40.132812 226.238281 40.4375 226.019531 40.667969 C 225.796875 40.894531 225.484375 41.007812 225.074219 41.007812 C 224.8125 41.007812 224.589844 40.949219 224.402344 40.828125 C 224.21875 40.707031 224.074219 40.554688 223.964844 40.367188 C 223.859375 40.179688 223.78125 39.96875 223.730469 39.738281 C 223.683594 39.503906 223.660156 39.277344 223.660156 39.054688 C 223.660156 38.820312 223.683594 38.585938 223.730469 38.351562 C 223.78125 38.113281 223.863281 37.898438 223.976562 37.703125 C 224.09375 37.507812 224.242188 37.347656 224.429688 37.222656 C 224.613281 37.097656 224.839844 37.035156 225.113281 37.035156 C 225.839844 37.035156 226.261719 37.394531 226.371094 38.105469 Z M 232.207031 42.894531 L 234.800781 35.921875 L 233.035156 35.921875 L 231.679688 40.167969 L 231.65625 40.167969 L 230.253906 35.921875 L 228.441406 35.921875 L 230.613281 41.742188 C 230.660156 41.863281 230.683594 41.988281 230.683594 42.125 C 230.683594 42.308594 230.628906 42.476562 230.523438 42.628906 C 230.414062 42.78125 230.246094 42.867188 230.023438 42.894531 C 229.855469 42.902344 229.6875 42.898438 229.519531 42.882812 C 229.351562 42.867188 229.1875 42.847656 229.027344 42.832031 L 229.027344 44.238281 C 229.203125 44.253906 229.378906 44.265625 229.550781 44.277344 C 229.722656 44.289062 229.894531 44.296875 230.070312 44.296875 C 230.65625 44.296875 231.113281 44.1875 231.441406 43.972656 C 231.769531 43.757812 232.023438 43.398438 232.207031 42.894531 Z M 242.550781 39.003906 C 242.550781 39.261719 242.527344 39.507812 242.480469 39.75 C 242.433594 39.988281 242.351562 40.203125 242.238281 40.390625 C 242.128906 40.578125 241.976562 40.730469 241.789062 40.839844 C 241.601562 40.953125 241.367188 41.007812 241.089844 41.007812 C 240.824219 41.007812 240.597656 40.949219 240.410156 40.835938 C 240.222656 40.71875 240.066406 40.566406 239.941406 40.378906 C 239.816406 40.191406 239.726562 39.976562 239.671875 39.738281 C 239.617188 39.496094 239.589844 39.257812 239.589844 39.015625 C 239.589844 38.761719 239.613281 38.515625 239.664062 38.277344 C 239.71875 38.042969 239.800781 37.832031 239.917969 37.648438 C 240.035156 37.464844 240.1875 37.316406 240.378906 37.203125 C 240.570312 37.09375 240.808594 37.035156 241.089844 37.035156 C 241.367188 37.035156 241.601562 37.09375 241.785156 37.203125 C 241.96875 37.316406 242.117188 37.464844 242.234375 37.644531 C 242.351562 37.824219 242.433594 38.03125 242.480469 38.265625 C 242.527344 38.503906 242.550781 38.75 242.550781 39.003906 Z M 242.574219 41.332031 L 242.574219 42.125 L 244.195312 42.125 L 244.195312 33.558594 L 242.492188 33.558594 L 242.492188 36.675781 L 242.46875 36.675781 C 242.277344 36.371094 242.015625 36.144531 241.683594 35.988281 C 241.351562 35.832031 241 35.753906 240.632812 35.753906 C 240.175781 35.753906 239.777344 35.84375 239.433594 36.023438 C 239.089844 36.203125 238.800781 36.441406 238.574219 36.738281 C 238.347656 37.035156 238.175781 37.375 238.058594 37.761719 C 237.941406 38.152344 237.882812 38.554688 237.882812 38.96875 C 237.882812 39.402344 237.941406 39.816406 238.058594 40.21875 C 238.175781 40.617188 238.347656 40.972656 238.574219 41.277344 C 238.800781 41.585938 239.09375 41.832031 239.445312 42.011719 C 239.796875 42.191406 240.203125 42.28125 240.667969 42.28125 C 241.074219 42.28125 241.441406 42.207031 241.765625 42.058594 C 242.089844 41.910156 242.351562 41.667969 242.550781 41.332031 Z M 245.148438 35.921875 L 245.148438 42.125 L 246.851562 42.125 L 246.851562 39.328125 C 246.851562 39.046875 246.878906 38.789062 246.9375 38.550781 C 246.992188 38.308594 247.085938 38.097656 247.21875 37.917969 C 247.351562 37.738281 247.523438 37.597656 247.738281 37.492188 C 247.957031 37.390625 248.21875 37.335938 248.53125 37.335938 C 248.636719 37.335938 248.742188 37.34375 248.855469 37.355469 C 248.96875 37.367188 249.0625 37.382812 249.144531 37.398438 L 249.144531 35.8125 C 249.007812 35.773438 248.882812 35.753906 248.773438 35.753906 C 248.554688 35.753906 248.347656 35.785156 248.148438 35.847656 C 247.949219 35.914062 247.761719 36.003906 247.585938 36.117188 C 247.410156 36.234375 247.253906 36.375 247.117188 36.539062 C 246.980469 36.703125 246.871094 36.882812 246.792969 37.074219 L 246.769531 37.074219 L 246.769531 35.921875 Z M 251.898438 34.960938 L 251.898438 33.558594 L 250.195312 33.558594 L 250.195312 34.960938 Z M 250.195312 35.921875 L 250.195312 42.125 L 251.898438 42.125 L 251.898438 35.921875 Z M 253.148438 35.921875 L 253.148438 42.125 L 254.851562 42.125 L 254.851562 38.871094 C 254.851562 38.242188 254.957031 37.785156 255.164062 37.511719 C 255.371094 37.234375 255.707031 37.097656 256.171875 37.097656 C 256.578125 37.097656 256.863281 37.222656 257.023438 37.476562 C 257.183594 37.726562 257.265625 38.109375 257.265625 38.621094 L 257.265625 42.125 L 258.96875 42.125 L 258.96875 38.308594 C 258.96875 37.925781 258.933594 37.574219 258.867188 37.257812 C 258.796875 36.941406 258.679688 36.675781 258.511719 36.453125 C 258.34375 36.234375 258.113281 36.0625 257.820312 35.9375 C 257.53125 35.816406 257.15625 35.753906 256.699219 35.753906 C 256.339844 35.753906 255.988281 35.835938 255.644531 36 C 255.300781 36.164062 255.019531 36.425781 254.804688 36.785156 L 254.769531 36.785156 L 254.769531 35.921875 Z M 260.304688 33.558594 L 260.304688 42.125 L 262.007812 42.125 L 262.007812 39.988281 L 262.667969 39.351562 L 264.371094 42.125 L 266.4375 42.125 L 263.832031 38.199219 L 266.171875 35.921875 L 264.15625 35.921875 L 262.007812 38.152344 L 262.007812 33.558594 Z M 268.46875 40.109375 L 266.847656 40.109375 C 266.863281 40.523438 266.957031 40.871094 267.128906 41.148438 C 267.300781 41.421875 267.523438 41.644531 267.789062 41.8125 C 268.058594 41.980469 268.363281 42.101562 268.707031 42.171875 C 269.050781 42.246094 269.402344 42.28125 269.765625 42.28125 C 270.117188 42.28125 270.460938 42.246094 270.800781 42.179688 C 271.140625 42.109375 271.445312 41.992188 271.707031 41.824219 C 271.972656 41.65625 272.1875 41.433594 272.351562 41.160156 C 272.515625 40.882812 272.597656 40.539062 272.597656 40.132812 C 272.597656 39.84375 272.539062 39.601562 272.429688 39.40625 C 272.316406 39.210938 272.167969 39.046875 271.984375 38.914062 C 271.800781 38.78125 271.589844 38.675781 271.355469 38.597656 C 271.117188 38.515625 270.875 38.449219 270.628906 38.394531 C 270.386719 38.335938 270.152344 38.285156 269.921875 38.238281 C 269.6875 38.1875 269.480469 38.136719 269.300781 38.074219 C 269.121094 38.015625 268.976562 37.9375 268.863281 37.839844 C 268.75 37.746094 268.695312 37.621094 268.695312 37.46875 C 268.695312 37.339844 268.726562 37.238281 268.792969 37.164062 C 268.855469 37.085938 268.933594 37.027344 269.027344 36.988281 C 269.117188 36.949219 269.21875 36.921875 269.332031 36.910156 C 269.445312 36.898438 269.546875 36.894531 269.644531 36.894531 C 269.949219 36.894531 270.210938 36.949219 270.4375 37.066406 C 270.660156 37.183594 270.785156 37.40625 270.808594 37.734375 L 272.429688 37.734375 C 272.398438 37.347656 272.296875 37.03125 272.132812 36.777344 C 271.96875 36.527344 271.765625 36.324219 271.515625 36.171875 C 271.269531 36.019531 270.984375 35.914062 270.671875 35.847656 C 270.355469 35.785156 270.027344 35.753906 269.691406 35.753906 C 269.355469 35.753906 269.027344 35.78125 268.707031 35.84375 C 268.386719 35.902344 268.101562 36.007812 267.84375 36.15625 C 267.589844 36.304688 267.382812 36.503906 267.226562 36.761719 C 267.070312 37.015625 266.992188 37.34375 266.992188 37.746094 C 266.992188 38.015625 267.046875 38.246094 267.160156 38.433594 C 267.273438 38.621094 267.421875 38.777344 267.605469 38.902344 C 267.789062 39.027344 267.996094 39.128906 268.234375 39.203125 C 268.46875 39.277344 268.710938 39.34375 268.960938 39.402344 C 269.566406 39.53125 270.042969 39.65625 270.382812 39.785156 C 270.722656 39.914062 270.890625 40.105469 270.890625 40.359375 C 270.890625 40.511719 270.855469 40.640625 270.785156 40.738281 C 270.710938 40.839844 270.621094 40.917969 270.515625 40.980469 C 270.40625 41.039062 270.285156 41.082031 270.152344 41.109375 C 270.019531 41.136719 269.894531 41.152344 269.777344 41.152344 C 269.609375 41.152344 269.445312 41.132812 269.289062 41.09375 C 269.132812 41.054688 268.996094 40.992188 268.875 40.90625 C 268.753906 40.824219 268.65625 40.714844 268.582031 40.582031 C 268.507812 40.449219 268.46875 40.292969 268.46875 40.109375 Z M 158.5 30.125 "/>
<path style="fill-rule:nonzero;fill:rgb(96.078431%,82.352941%,28.235294%);fill-opacity:1;stroke-width:2;stroke-linecap:butt;stroke-linejoin:bevel;stroke:rgb(100%,100%,100%);stroke-opacity:1;stroke-miterlimit:10;" d="M 200 55 C 251.800781 55 297.953125 87.710938 315.113281 136.585938 C 332.269531 185.460938 316.695312 239.84375 276.265625 272.222656 L 200 177 Z M 200 55 "/>
<path style="fill-rule:nonzero;fill:rgb(89.019608%,54.509804%,51.764706%);fill-opacity:1;stroke-width:2;stroke-linecap:butt;stroke-linejoin:bevel;stroke:rgb(100%,100%,100%);stroke-opacity:1;stroke-miterlimit:10;" d="M 276.265625 272.222656 C 227.457031 311.316406 156.992188 307.171875 113.101562 262.632812 L 200 177 Z M 276.265625 272.222656 "/>
<path style="fill-rule:nonzero;fill:rgb(12.54902%,36.862745%,44.313725%);fill-opacity:1;stroke-width:2;stroke-linecap:butt;stroke-linejoin:bevel;stroke:rgb(100%,100%,100%);stroke-opacity:1;stroke-miterlimit:10;" d="M 113.101562 262.632812 C 87.546875 236.695312 74.910156 200.703125 78.644531 164.484375 C 82.378906 128.265625 102.09375 95.609375 132.40625 75.4375 L 200 177 Z M 113.101562 262.632812 "/>
<path style="fill-rule:nonzero;fill:rgb(39.215686%,90.980392%,23.529412%);fill-opacity:1;stroke-width:2;stroke-linecap:butt;stroke-linejoin:bevel;stroke:rgb(100%,100%,100%);stroke-opacity:1;stroke-miterlimit:10;" d="M 132.40625 75.4375 C 152.429688 62.109375 175.945312 55 200 55 L 200 177 Z M 132.40625 75.4375 "/>
</g>
</svg>
